<?xml version="1.0" encoding="utf-8" standalone="no"?>
<!DOCTYPE svg PUBLIC "-//W3C//DTD SVG 1.1//EN"
  "http://www.w3.org/Graphics/SVG/1.1/DTD/svg11.dtd">
<svg xmlns:xlink="http://www.w3.org/1999/xlink" width="403.776372pt" height="297.190125pt" viewBox="0 0 403.776372 297.190125" xmlns="http://www.w3.org/2000/svg" version="1.1">
 <metadata>
  <rdf:RDF xmlns:dc="http://purl.org/dc/elements/1.1/" xmlns:cc="http://creativecommons.org/ns#" xmlns:rdf="http://www.w3.org/1999/02/22-rdf-syntax-ns#">
   <cc:Work>
    <dc:type rdf:resource="http://purl.org/dc/dcmitype/StillImage"/>
    <dc:date>2023-05-29T16:50:19.780094</dc:date>
    <dc:format>image/svg+xml</dc:format>
    <dc:creator>
     <cc:Agent>
      <dc:title>Matplotlib v3.7.1, https://matplotlib.org/</dc:title>
     </cc:Agent>
    </dc:creator>
   </cc:Work>
  </rdf:RDF>
 </metadata>
 <defs>
  <style type="text/css">*{stroke-linejoin: round; stroke-linecap: butt}</style>
 </defs>
 <g id="figure_1">
  <g id="patch_1">
   <path d="M 0 297.190125 
L 403.776372 297.190125 
L 403.776372 0 
L 0 0 
L 0 297.190125 
z
" style="fill: none"/>
  </g>
  <g id="axes_1">
   <g id="patch_2">
    <path d="M 33.2875 273.312 
L 390.4075 273.312 
L 390.4075 7.2 
L 33.2875 7.2 
L 33.2875 273.312 
z
" style="fill: none"/>
   </g>
   <g id="matplotlib.axis_1">
    <g id="xtick_1">
     <g id="line2d_1">
      <defs>
       <path id="mdd7b4c1996" d="M 0 0 
L 0 3.5 
" style="stroke: #000000; stroke-width: 0.8"/>
      </defs>
      <g>
       <use xlink:href="#mdd7b4c1996" x="44.634439" y="273.312" style="stroke: #000000; stroke-width: 0.8"/>
      </g>
     </g>
     <g id="text_1">
      <!-- 0 -->
      <g transform="translate(41.453189 287.910437) scale(0.1 -0.1)">
       <defs>
        <path id="DejaVuSans-30" d="M 2034 4250 
Q 1547 4250 1301 3770 
Q 1056 3291 1056 2328 
Q 1056 1369 1301 889 
Q 1547 409 2034 409 
Q 2525 409 2770 889 
Q 3016 1369 3016 2328 
Q 3016 3291 2770 3770 
Q 2525 4250 2034 4250 
z
M 2034 4750 
Q 2819 4750 3233 4129 
Q 3647 3509 3647 2328 
Q 3647 1150 3233 529 
Q 2819 -91 2034 -91 
Q 1250 -91 836 529 
Q 422 1150 422 2328 
Q 422 3509 836 4129 
Q 1250 4750 2034 4750 
z
" transform="scale(0.015625)"/>
       </defs>
       <use xlink:href="#DejaVuSans-30"/>
      </g>
     </g>
    </g>
    <g id="xtick_2">
     <g id="line2d_2">
      <g>
       <use xlink:href="#mdd7b4c1996" x="93.094001" y="273.312" style="stroke: #000000; stroke-width: 0.8"/>
      </g>
     </g>
     <g id="text_2">
      <!-- 500 -->
      <g transform="translate(83.550251 287.910437) scale(0.1 -0.1)">
       <defs>
        <path id="DejaVuSans-35" d="M 691 4666 
L 3169 4666 
L 3169 4134 
L 1269 4134 
L 1269 2991 
Q 1406 3038 1543 3061 
Q 1681 3084 1819 3084 
Q 2600 3084 3056 2656 
Q 3513 2228 3513 1497 
Q 3513 744 3044 326 
Q 2575 -91 1722 -91 
Q 1428 -91 1123 -41 
Q 819 9 494 109 
L 494 744 
Q 775 591 1075 516 
Q 1375 441 1709 441 
Q 2250 441 2565 725 
Q 2881 1009 2881 1497 
Q 2881 1984 2565 2268 
Q 2250 2553 1709 2553 
Q 1456 2553 1204 2497 
Q 953 2441 691 2322 
L 691 4666 
z
" transform="scale(0.015625)"/>
       </defs>
       <use xlink:href="#DejaVuSans-35"/>
       <use xlink:href="#DejaVuSans-30" x="63.623047"/>
       <use xlink:href="#DejaVuSans-30" x="127.246094"/>
      </g>
     </g>
    </g>
    <g id="xtick_3">
     <g id="line2d_3">
      <g>
       <use xlink:href="#mdd7b4c1996" x="141.553563" y="273.312" style="stroke: #000000; stroke-width: 0.8"/>
      </g>
     </g>
     <g id="text_3">
      <!-- 1000 -->
      <g transform="translate(128.828563 287.910437) scale(0.1 -0.1)">
       <defs>
        <path id="DejaVuSans-31" d="M 794 531 
L 1825 531 
L 1825 4091 
L 703 3866 
L 703 4441 
L 1819 4666 
L 2450 4666 
L 2450 531 
L 3481 531 
L 3481 0 
L 794 0 
L 794 531 
z
" transform="scale(0.015625)"/>
       </defs>
       <use xlink:href="#DejaVuSans-31"/>
       <use xlink:href="#DejaVuSans-30" x="63.623047"/>
       <use xlink:href="#DejaVuSans-30" x="127.246094"/>
       <use xlink:href="#DejaVuSans-30" x="190.869141"/>
      </g>
     </g>
    </g>
    <g id="xtick_4">
     <g id="line2d_4">
      <g>
       <use xlink:href="#mdd7b4c1996" x="190.013125" y="273.312" style="stroke: #000000; stroke-width: 0.8"/>
      </g>
     </g>
     <g id="text_4">
      <!-- 1500 -->
      <g transform="translate(177.288125 287.910437) scale(0.1 -0.1)">
       <use xlink:href="#DejaVuSans-31"/>
       <use xlink:href="#DejaVuSans-35" x="63.623047"/>
       <use xlink:href="#DejaVuSans-30" x="127.246094"/>
       <use xlink:href="#DejaVuSans-30" x="190.869141"/>
      </g>
     </g>
    </g>
    <g id="xtick_5">
     <g id="line2d_5">
      <g>
       <use xlink:href="#mdd7b4c1996" x="238.472686" y="273.312" style="stroke: #000000; stroke-width: 0.8"/>
      </g>
     </g>
     <g id="text_5">
      <!-- 2000 -->
      <g transform="translate(225.747686 287.910437) scale(0.1 -0.1)">
       <defs>
        <path id="DejaVuSans-32" d="M 1228 531 
L 3431 531 
L 3431 0 
L 469 0 
L 469 531 
Q 828 903 1448 1529 
Q 2069 2156 2228 2338 
Q 2531 2678 2651 2914 
Q 2772 3150 2772 3378 
Q 2772 3750 2511 3984 
Q 2250 4219 1831 4219 
Q 1534 4219 1204 4116 
Q 875 4013 500 3803 
L 500 4441 
Q 881 4594 1212 4672 
Q 1544 4750 1819 4750 
Q 2544 4750 2975 4387 
Q 3406 4025 3406 3419 
Q 3406 3131 3298 2873 
Q 3191 2616 2906 2266 
Q 2828 2175 2409 1742 
Q 1991 1309 1228 531 
z
" transform="scale(0.015625)"/>
       </defs>
       <use xlink:href="#DejaVuSans-32"/>
       <use xlink:href="#DejaVuSans-30" x="63.623047"/>
       <use xlink:href="#DejaVuSans-30" x="127.246094"/>
       <use xlink:href="#DejaVuSans-30" x="190.869141"/>
      </g>
     </g>
    </g>
    <g id="xtick_6">
     <g id="line2d_6">
      <g>
       <use xlink:href="#mdd7b4c1996" x="286.932248" y="273.312" style="stroke: #000000; stroke-width: 0.8"/>
      </g>
     </g>
     <g id="text_6">
      <!-- 2500 -->
      <g transform="translate(274.207248 287.910437) scale(0.1 -0.1)">
       <use xlink:href="#DejaVuSans-32"/>
       <use xlink:href="#DejaVuSans-35" x="63.623047"/>
       <use xlink:href="#DejaVuSans-30" x="127.246094"/>
       <use xlink:href="#DejaVuSans-30" x="190.869141"/>
      </g>
     </g>
    </g>
    <g id="xtick_7">
     <g id="line2d_7">
      <g>
       <use xlink:href="#mdd7b4c1996" x="335.39181" y="273.312" style="stroke: #000000; stroke-width: 0.8"/>
      </g>
     </g>
     <g id="text_7">
      <!-- 3000 -->
      <g transform="translate(322.66681 287.910437) scale(0.1 -0.1)">
       <defs>
        <path id="DejaVuSans-33" d="M 2597 2516 
Q 3050 2419 3304 2112 
Q 3559 1806 3559 1356 
Q 3559 666 3084 287 
Q 2609 -91 1734 -91 
Q 1441 -91 1130 -33 
Q 819 25 488 141 
L 488 750 
Q 750 597 1062 519 
Q 1375 441 1716 441 
Q 2309 441 2620 675 
Q 2931 909 2931 1356 
Q 2931 1769 2642 2001 
Q 2353 2234 1838 2234 
L 1294 2234 
L 1294 2753 
L 1863 2753 
Q 2328 2753 2575 2939 
Q 2822 3125 2822 3475 
Q 2822 3834 2567 4026 
Q 2313 4219 1838 4219 
Q 1578 4219 1281 4162 
Q 984 4106 628 3988 
L 628 4550 
Q 988 4650 1302 4700 
Q 1616 4750 1894 4750 
Q 2613 4750 3031 4423 
Q 3450 4097 3450 3541 
Q 3450 3153 3228 2886 
Q 3006 2619 2597 2516 
z
" transform="scale(0.015625)"/>
       </defs>
       <use xlink:href="#DejaVuSans-33"/>
       <use xlink:href="#DejaVuSans-30" x="63.623047"/>
       <use xlink:href="#DejaVuSans-30" x="127.246094"/>
       <use xlink:href="#DejaVuSans-30" x="190.869141"/>
      </g>
     </g>
    </g>
    <g id="xtick_8">
     <g id="line2d_8">
      <g>
       <use xlink:href="#mdd7b4c1996" x="383.851372" y="273.312" style="stroke: #000000; stroke-width: 0.8"/>
      </g>
     </g>
     <g id="text_8">
      <!-- 3500 -->
      <g transform="translate(371.126372 287.910437) scale(0.1 -0.1)">
       <use xlink:href="#DejaVuSans-33"/>
       <use xlink:href="#DejaVuSans-35" x="63.623047"/>
       <use xlink:href="#DejaVuSans-30" x="127.246094"/>
       <use xlink:href="#DejaVuSans-30" x="190.869141"/>
      </g>
     </g>
    </g>
   </g>
   <g id="matplotlib.axis_2">
    <g id="ytick_1">
     <g id="line2d_9">
      <defs>
       <path id="mc83b7a8eec" d="M 0 0 
L -3.5 0 
" style="stroke: #000000; stroke-width: 0.8"/>
      </defs>
      <g>
       <use xlink:href="#mc83b7a8eec" x="33.2875" y="257.436211" style="stroke: #000000; stroke-width: 0.8"/>
      </g>
     </g>
     <g id="text_9">
      <!-- 0 -->
      <g transform="translate(19.925 261.23543) scale(0.1 -0.1)">
       <use xlink:href="#DejaVuSans-30"/>
      </g>
     </g>
    </g>
    <g id="ytick_2">
     <g id="line2d_10">
      <g>
       <use xlink:href="#mc83b7a8eec" x="33.2875" y="213.177003" style="stroke: #000000; stroke-width: 0.8"/>
      </g>
     </g>
     <g id="text_10">
      <!-- 20 -->
      <g transform="translate(13.5625 216.976221) scale(0.1 -0.1)">
       <use xlink:href="#DejaVuSans-32"/>
       <use xlink:href="#DejaVuSans-30" x="63.623047"/>
      </g>
     </g>
    </g>
    <g id="ytick_3">
     <g id="line2d_11">
      <g>
       <use xlink:href="#mc83b7a8eec" x="33.2875" y="168.917794" style="stroke: #000000; stroke-width: 0.8"/>
      </g>
     </g>
     <g id="text_11">
      <!-- 40 -->
      <g transform="translate(13.5625 172.717013) scale(0.1 -0.1)">
       <defs>
        <path id="DejaVuSans-34" d="M 2419 4116 
L 825 1625 
L 2419 1625 
L 2419 4116 
z
M 2253 4666 
L 3047 4666 
L 3047 1625 
L 3713 1625 
L 3713 1100 
L 3047 1100 
L 3047 0 
L 2419 0 
L 2419 1100 
L 313 1100 
L 313 1709 
L 2253 4666 
z
" transform="scale(0.015625)"/>
       </defs>
       <use xlink:href="#DejaVuSans-34"/>
       <use xlink:href="#DejaVuSans-30" x="63.623047"/>
      </g>
     </g>
    </g>
    <g id="ytick_4">
     <g id="line2d_12">
      <g>
       <use xlink:href="#mc83b7a8eec" x="33.2875" y="124.658586" style="stroke: #000000; stroke-width: 0.8"/>
      </g>
     </g>
     <g id="text_12">
      <!-- 60 -->
      <g transform="translate(13.5625 128.457805) scale(0.1 -0.1)">
       <defs>
        <path id="DejaVuSans-36" d="M 2113 2584 
Q 1688 2584 1439 2293 
Q 1191 2003 1191 1497 
Q 1191 994 1439 701 
Q 1688 409 2113 409 
Q 2538 409 2786 701 
Q 3034 994 3034 1497 
Q 3034 2003 2786 2293 
Q 2538 2584 2113 2584 
z
M 3366 4563 
L 3366 3988 
Q 3128 4100 2886 4159 
Q 2644 4219 2406 4219 
Q 1781 4219 1451 3797 
Q 1122 3375 1075 2522 
Q 1259 2794 1537 2939 
Q 1816 3084 2150 3084 
Q 2853 3084 3261 2657 
Q 3669 2231 3669 1497 
Q 3669 778 3244 343 
Q 2819 -91 2113 -91 
Q 1303 -91 875 529 
Q 447 1150 447 2328 
Q 447 3434 972 4092 
Q 1497 4750 2381 4750 
Q 2619 4750 2861 4703 
Q 3103 4656 3366 4563 
z
" transform="scale(0.015625)"/>
       </defs>
       <use xlink:href="#DejaVuSans-36"/>
       <use xlink:href="#DejaVuSans-30" x="63.623047"/>
      </g>
     </g>
    </g>
    <g id="ytick_5">
     <g id="line2d_13">
      <g>
       <use xlink:href="#mc83b7a8eec" x="33.2875" y="80.399378" style="stroke: #000000; stroke-width: 0.8"/>
      </g>
     </g>
     <g id="text_13">
      <!-- 80 -->
      <g transform="translate(13.5625 84.198597) scale(0.1 -0.1)">
       <defs>
        <path id="DejaVuSans-38" d="M 2034 2216 
Q 1584 2216 1326 1975 
Q 1069 1734 1069 1313 
Q 1069 891 1326 650 
Q 1584 409 2034 409 
Q 2484 409 2743 651 
Q 3003 894 3003 1313 
Q 3003 1734 2745 1975 
Q 2488 2216 2034 2216 
z
M 1403 2484 
Q 997 2584 770 2862 
Q 544 3141 544 3541 
Q 544 4100 942 4425 
Q 1341 4750 2034 4750 
Q 2731 4750 3128 4425 
Q 3525 4100 3525 3541 
Q 3525 3141 3298 2862 
Q 3072 2584 2669 2484 
Q 3125 2378 3379 2068 
Q 3634 1759 3634 1313 
Q 3634 634 3220 271 
Q 2806 -91 2034 -91 
Q 1263 -91 848 271 
Q 434 634 434 1313 
Q 434 1759 690 2068 
Q 947 2378 1403 2484 
z
M 1172 3481 
Q 1172 3119 1398 2916 
Q 1625 2713 2034 2713 
Q 2441 2713 2670 2916 
Q 2900 3119 2900 3481 
Q 2900 3844 2670 4047 
Q 2441 4250 2034 4250 
Q 1625 4250 1398 4047 
Q 1172 3844 1172 3481 
z
" transform="scale(0.015625)"/>
       </defs>
       <use xlink:href="#DejaVuSans-38"/>
       <use xlink:href="#DejaVuSans-30" x="63.623047"/>
      </g>
     </g>
    </g>
    <g id="ytick_6">
     <g id="line2d_14">
      <g>
       <use xlink:href="#mc83b7a8eec" x="33.2875" y="36.140169" style="stroke: #000000; stroke-width: 0.8"/>
      </g>
     </g>
     <g id="text_14">
      <!-- 100 -->
      <g transform="translate(7.2 39.939388) scale(0.1 -0.1)">
       <use xlink:href="#DejaVuSans-31"/>
       <use xlink:href="#DejaVuSans-30" x="63.623047"/>
       <use xlink:href="#DejaVuSans-30" x="127.246094"/>
      </g>
     </g>
    </g>
   </g>
   <g id="line2d_15">
    <path d="M 49.520227 102.13419 
L 49.707133 103.063589 
L 49.894039 110.115032 
L 50.267849 109.189152 
L 50.641659 110.360959 
L 51.015469 119.663647 
L 51.202375 120.403705 
L 51.389281 120.465469 
L 51.949996 125.252345 
L 52.323807 129.994498 
L 52.510712 130.50764 
L 52.697618 127.34689 
L 52.884523 128.446975 
L 53.071428 131.540959 
L 53.258334 130.441361 
L 53.445239 130.205836 
L 53.81905 136.250737 
L 54.005954 134.7118 
L 54.19286 134.439783 
L 54.566672 138.154591 
L 54.753581 138.480139 
L 54.94048 139.259345 
L 55.314297 143.174315 
L 55.501196 142.326375 
L 55.875013 139.010564 
L 56.24882 144.958846 
L 56.435729 144.429728 
L 56.622627 142.486151 
L 56.809536 143.303818 
L 56.996444 145.68618 
L 57.183343 143.776595 
L 57.370252 143.187527 
L 57.55716 144.939129 
L 57.744059 143.959695 
L 58.491684 147.716859 
L 58.678592 147.36159 
L 58.865491 147.349663 
L 59.239308 145.121145 
L 59.613115 147.948689 
L 59.800024 146.406853 
L 59.986923 146.331656 
L 60.36074 148.075204 
L 60.547639 148.140729 
L 60.734547 146.040851 
L 60.921456 146.729325 
L 61.108355 148.564489 
L 61.295263 146.997691 
L 61.482172 148.041987 
L 61.855979 147.966946 
L 62.042887 148.249718 
L 62.229786 148.190986 
L 62.416695 146.765662 
L 62.603603 147.993014 
L 62.790502 148.031055 
L 62.977411 146.71545 
L 63.164319 148.356095 
L 63.351218 147.225139 
L 63.538127 145.333434 
L 63.725035 146.558994 
L 63.911934 149.927452 
L 64.098843 148.190388 
L 64.285751 145.40894 
L 64.47265 147.684572 
L 64.659558 148.556257 
L 64.846467 145.93297 
L 65.033366 148.290016 
L 65.220274 142.395774 
L 65.407183 143.949095 
L 65.594082 147.927267 
L 65.78099 148.091292 
L 65.967899 145.824866 
L 66.154798 146.268388 
L 66.528615 147.571224 
L 66.715514 147.838218 
L 66.902422 147.491668 
L 67.089331 146.193966 
L 67.276229 146.410726 
L 67.463138 147.428466 
L 67.650046 147.533515 
L 67.836945 145.233563 
L 68.210762 146.482824 
L 68.771478 150.41001 
L 68.958377 146.60956 
L 69.145286 146.283259 
L 69.332194 147.352783 
L 69.706002 146.229351 
L 69.89291 150.631925 
L 70.079809 152.219857 
L 70.453626 148.973135 
L 70.827433 149.857854 
L 71.014342 150.029779 
L 71.201241 149.405414 
L 71.388149 148.335027 
L 71.575058 148.64971 
L 71.761957 152.034898 
L 71.948865 149.88421 
L 72.135774 149.943252 
L 72.322672 154.427263 
L 72.509581 154.685272 
L 72.883388 150.545886 
L 73.070297 152.234153 
L 73.257205 155.287131 
L 73.444104 153.455641 
L 73.631013 153.288407 
L 73.817921 152.866484 
L 74.191729 157.028598 
L 74.378637 156.650226 
L 74.565536 155.66391 
L 74.752445 153.703758 
L 74.939353 153.502113 
L 75.313161 159.004595 
L 75.500069 156.188337 
L 75.686968 156.370906 
L 75.873876 158.017769 
L 76.060785 157.105808 
L 76.247684 152.867923 
L 76.621501 158.147869 
L 76.8084 159.218013 
L 76.995308 158.227801 
L 77.182217 155.846811 
L 77.369116 155.468328 
L 77.556024 156.211728 
L 77.929831 160.697111 
L 78.11674 161.393884 
L 78.490547 157.727805 
L 79.051263 152.98324 
L 79.42508 159.759502 
L 79.611979 156.887655 
L 79.798888 156.836491 
L 79.985796 159.628694 
L 80.172695 160.301058 
L 80.359604 156.05983 
L 80.546512 157.801917 
L 80.733411 158.015512 
L 80.920319 156.531125 
L 81.107228 156.335676 
L 81.294127 160.273418 
L 81.481035 158.104053 
L 81.667944 157.421 
L 81.854843 157.296189 
L 82.041751 156.167115 
L 82.22866 154.195677 
L 82.602467 157.476059 
L 82.976275 152.991052 
L 83.163183 153.337978 
L 83.53699 158.79027 
L 83.910807 156.449334 
L 84.097706 159.28657 
L 84.284615 158.858694 
L 84.471523 157.052697 
L 85.032239 154.973422 
L 85.219138 155.523099 
L 85.779854 157.91604 
L 85.966763 157.600671 
L 86.901286 153.415675 
L 87.088194 154.902873 
L 87.275103 159.629778 
L 87.462002 155.299944 
L 87.64891 156.717257 
L 87.835819 156.491822 
L 88.022718 155.362947 
L 88.396535 156.840408 
L 88.583434 155.944934 
L 88.770342 153.973916 
L 88.957251 153.239833 
L 89.331058 155.776107 
L 89.517966 155.700136 
L 90.265581 152.879076 
L 90.45249 151.50693 
L 90.639398 151.494139 
L 91.013206 153.920097 
L 91.200114 153.845587 
L 91.387013 151.844561 
L 91.573922 153.471154 
L 91.76083 150.997728 
L 91.947729 151.067259 
L 92.134637 152.221251 
L 92.321546 151.879947 
L 92.508445 151.027558 
L 92.695353 153.041972 
L 92.882262 153.019333 
L 93.069161 152.701663 
L 93.256069 153.972544 
L 93.442978 156.619311 
L 93.629877 156.474119 
L 93.816785 154.854741 
L 94.003694 155.164312 
L 94.190592 154.06343 
L 94.377501 151.920222 
L 94.56441 152.751543 
L 94.751318 152.372264 
L 94.938217 155.94157 
L 95.125125 155.996274 
L 95.312034 155.147692 
L 95.685841 157.123778 
L 96.059649 153.538295 
L 96.246557 152.895872 
L 96.433466 153.855456 
L 96.620365 156.005591 
L 96.994182 153.783314 
L 97.367989 155.160638 
L 97.554898 155.16097 
L 97.741796 155.774845 
L 97.928705 152.294346 
L 98.115613 153.551772 
L 98.302512 152.135322 
L 98.489421 152.962438 
L 98.676329 154.757614 
L 98.863228 150.857758 
L 99.050137 153.978431 
L 99.423944 152.601615 
L 99.610853 152.69737 
L 99.797761 153.429174 
L 99.98466 155.306295 
L 100.171569 154.454505 
L 100.358477 152.996385 
L 100.545376 152.608232 
L 100.919193 153.502622 
L 101.106092 154.124862 
L 101.293 153.687227 
L 101.479909 151.057168 
L 101.666808 150.125711 
L 102.040625 153.041087 
L 102.227524 152.660524 
L 102.414432 151.040305 
L 102.601341 151.399801 
L 102.975148 153.38622 
L 103.162057 152.68916 
L 103.348955 153.019577 
L 103.722772 151.705565 
L 103.909671 151.697798 
L 104.09658 151.957046 
L 104.283488 151.743274 
L 104.470387 151.067679 
L 104.657296 151.320554 
L 104.844204 152.163537 
L 105.218012 150.147531 
L 105.40492 151.279039 
L 105.591819 151.374462 
L 105.965636 149.526043 
L 106.152545 149.41254 
L 106.339443 149.624254 
L 106.526352 150.045447 
L 106.71326 151.740021 
L 106.900159 152.342035 
L 107.273976 147.362741 
L 107.460875 147.255501 
L 107.647784 149.0133 
L 107.834692 149.420927 
L 108.021591 149.185225 
L 108.2085 151.081289 
L 108.395408 150.999874 
L 108.582307 149.393995 
L 108.769216 149.14174 
L 108.956124 151.511046 
L 109.143023 147.98881 
L 109.329931 148.425338 
L 109.51684 150.31337 
L 109.890647 147.788205 
L 110.077556 153.827905 
L 110.451363 149.187106 
L 110.825171 147.90693 
L 111.012079 147.653192 
L 111.572795 148.852484 
L 111.946602 149.352879 
L 112.133511 147.110818 
L 112.320419 143.353299 
L 112.507318 145.022823 
L 112.694227 142.588191 
L 112.881135 147.287257 
L 113.068034 148.058739 
L 113.254943 145.899996 
L 113.441851 145.711851 
L 113.62875 147.659964 
L 113.815659 148.289064 
L 114.002567 145.417571 
L 114.376375 147.133545 
L 114.563283 146.630517 
L 114.93709 148.408409 
L 115.123999 145.62508 
L 115.310898 146.639634 
L 115.497806 146.473706 
L 115.684715 145.720149 
L 116.058522 148.032228 
L 116.245431 145.646989 
L 116.619238 144.997109 
L 116.806147 145.169454 
L 116.993045 145.051083 
L 117.179954 142.699215 
L 117.366863 143.717486 
L 117.553761 143.920725 
L 117.927578 145.639155 
L 118.114477 145.531583 
L 118.301386 144.047572 
L 118.488294 144.615351 
L 118.675193 148.306148 
L 118.862102 148.352908 
L 119.235909 145.919869 
L 119.422818 146.62826 
L 119.609726 148.455324 
L 119.796625 143.541534 
L 119.983533 143.121979 
L 120.170442 142.268462 
L 120.544249 145.195257 
L 120.731158 144.288696 
L 120.918057 144.248907 
L 121.291874 146.795471 
L 121.478773 146.72397 
L 122.413306 142.06009 
L 122.974021 145.037916 
L 123.347829 148.144514 
L 123.534737 143.764069 
L 123.721636 142.980172 
L 124.282352 144.038321 
L 124.469261 143.596482 
L 124.656169 141.850013 
L 124.843068 141.478214 
L 125.029977 143.422189 
L 125.216885 143.519736 
L 125.403784 142.034729 
L 125.590692 141.534888 
L 125.777601 142.181891 
L 125.9645 140.480324 
L 126.151408 144.513378 
L 126.338317 144.503795 
L 126.525216 144.243728 
L 127.27284 138.114979 
L 127.459749 142.536142 
L 127.646648 143.019563 
L 127.833556 142.626873 
L 128.020465 143.658577 
L 128.207363 144.065563 
L 128.58118 139.171756 
L 128.954988 139.236264 
L 129.141896 141.358648 
L 129.328795 141.824963 
L 129.515704 141.338687 
L 129.702612 142.144448 
L 129.889511 140.265534 
L 130.07642 142.659049 
L 130.637136 137.027441 
L 130.824044 137.364763 
L 131.010943 138.866921 
L 131.197851 139.016981 
L 131.38476 139.388294 
L 131.758567 135.619999 
L 131.945476 135.909919 
L 132.506192 140.364741 
L 132.693091 139.34315 
L 132.879999 136.636279 
L 133.066908 135.924967 
L 133.440715 139.949324 
L 133.627624 139.393849 
L 133.814522 137.174249 
L 134.001431 139.605828 
L 134.188339 136.086867 
L 134.375238 136.001646 
L 134.749055 141.721794 
L 135.309771 138.866611 
L 135.49667 135.965486 
L 135.870487 134.560876 
L 136.057386 135.773888 
L 136.244295 138.187165 
L 136.431203 138.815602 
L 136.618102 135.776256 
L 136.80501 135.874954 
L 136.991919 132.194712 
L 137.365726 136.647565 
L 137.739534 134.029057 
L 138.113351 136.43065 
L 138.487158 134.956288 
L 138.860965 132.024757 
L 139.047874 132.182076 
L 139.234783 134.021024 
L 139.421681 134.301716 
L 139.60859 133.741262 
L 139.795498 134.21468 
L 140.169306 134.458482 
L 140.543113 135.443935 
L 140.730022 134.342257 
L 140.91693 134.593451 
L 141.103829 132.5348 
L 141.290738 134.783654 
L 141.477646 134.904792 
L 141.851492 131.063513 
L 142.038352 130.837791 
L 142.412169 132.372546 
L 142.599029 131.390544 
L 142.785986 133.240823 
L 142.972847 133.62309 
L 143.159804 130.855783 
L 143.346664 130.196674 
L 143.533621 134.668182 
L 143.720481 133.635947 
L 143.907438 128.590906 
L 144.094298 130.622935 
L 144.281255 128.013523 
L 144.655072 132.89299 
L 144.841932 128.756944 
L 145.028889 128.066235 
L 145.215749 130.979642 
L 145.589566 127.925026 
L 145.776426 128.107087 
L 146.150243 125.159999 
L 146.3372 126.002694 
L 146.711017 129.03175 
L 146.897877 123.078599 
L 147.271694 128.032244 
L 147.645511 124.355765 
L 147.832468 125.341661 
L 148.019328 127.373601 
L 148.393145 124.813803 
L 148.953823 128.833933 
L 149.14078 127.689036 
L 149.32764 125.764579 
L 149.701457 124.386281 
L 149.888414 125.683762 
L 150.075274 125.338629 
L 150.262231 123.927446 
L 150.449091 124.66943 
L 150.636048 126.887436 
L 150.822908 126.734232 
L 151.196725 121.195679 
L 151.383585 124.53185 
L 151.757402 121.861625 
L 152.131219 124.91363 
L 152.318176 122.957506 
L 152.505036 119.431906 
L 152.691993 119.034082 
L 152.878853 125.824197 
L 153.06581 125.974678 
L 153.439627 120.646777 
L 153.813347 121.176449 
L 154.187164 118.136261 
L 154.374121 120.767294 
L 154.560982 120.22731 
L 155.121756 117.46403 
L 155.495573 118.263551 
L 156.243207 115.998055 
L 156.616927 119.287908 
L 156.803884 118.694968 
L 156.990744 115.971079 
L 157.177701 116.091243 
L 157.364561 119.352217 
L 157.738378 113.418252 
L 157.925335 114.552748 
L 158.112195 114.550801 
L 158.299152 114.419351 
L 158.486012 114.519399 
L 158.859829 111.683291 
L 159.046786 112.69364 
L 159.233646 115.369906 
L 159.607463 110.509935 
L 159.794323 112.365502 
L 160.168141 109.920093 
L 160.541958 114.895447 
L 160.915775 109.100877 
L 161.102732 107.078386 
L 161.476549 111.572665 
L 161.663409 111.769796 
L 161.850366 111.173536 
L 162.597903 106.534175 
L 162.78486 110.497653 
L 162.97172 108.718322 
L 163.345537 109.342023 
L 163.906311 104.887024 
L 164.093171 104.799236 
L 164.280128 105.73731 
L 164.466988 103.742193 
L 164.653945 103.142282 
L 164.840805 103.362936 
L 165.214622 100.307657 
L 165.401482 101.290609 
L 165.775299 101.89924 
L 165.962256 104.494578 
L 166.336074 99.3149 
L 166.522934 96.163291 
L 166.709891 98.35255 
L 166.896751 102.15269 
L 167.270568 99.743462 
L 167.457525 100.630815 
L 167.644385 98.379504 
L 167.831245 98.269786 
L 168.018202 99.829414 
L 168.392019 96.155678 
L 168.952696 97.141375 
L 169.326513 94.066444 
L 169.51347 94.50149 
L 170.074147 88.548914 
L 170.261104 93.022901 
L 170.447964 92.625032 
L 170.634824 92.552403 
L 171.008641 88.393963 
L 171.195598 89.952706 
L 171.382458 94.344082 
L 171.569415 93.866592 
L 172.130093 84.92798 
L 172.31705 83.274567 
L 172.50391 86.161152 
L 172.690867 84.919017 
L 172.877727 73.32908 
L 173.251544 20.389645 
L 173.438404 19.296 
L 173.812221 69.737157 
L 173.999178 80.52638 
L 174.372995 85.606938 
L 174.559855 86.315794 
L 174.933672 78.569614 
L 175.307489 85.689637 
L 175.681306 81.459342 
L 176.055123 83.499868 
L 176.241983 82.776982 
L 176.42894 85.182493 
L 176.6158 84.941634 
L 176.989617 83.202933 
L 177.176574 80.403671 
L 177.363434 80.572409 
L 177.550391 82.667529 
L 177.737252 81.231694 
L 178.111069 84.866947 
L 178.484886 80.484732 
L 178.858703 83.779564 
L 179.41938 76.643386 
L 179.606337 77.839735 
L 179.793197 84.645628 
L 179.980154 79.656155 
L 180.167014 79.744563 
L 180.353971 81.070502 
L 180.727788 74.718863 
L 181.101605 72.791862 
L 181.288465 73.535571 
L 181.475422 78.697102 
L 181.662282 79.53161 
L 181.849239 77.826701 
L 182.036099 71.131234 
L 182.222959 74.797202 
L 182.596776 69.602233 
L 182.970593 71.904841 
L 183.344411 69.334731 
L 183.531368 68.272266 
L 183.718228 66.496963 
L 183.905185 68.276139 
L 184.092045 72.718812 
L 184.279002 72.51294 
L 184.652819 70.451479 
L 184.839679 73.568544 
L 185.026539 74.09036 
L 185.213496 74.108639 
L 185.400356 75.445644 
L 185.587313 74.232831 
L 185.774173 75.097479 
L 185.96113 76.862514 
L 186.14799 76.672155 
L 186.334947 77.075976 
L 186.521807 76.643364 
L 186.708764 73.34165 
L 186.895624 72.325879 
L 187.082581 75.377794 
L 187.269441 74.749292 
L 187.456398 72.559257 
L 187.643258 74.333852 
L 188.017075 79.197364 
L 188.390892 72.818749 
L 188.95157 77.444766 
L 189.325387 75.692477 
L 189.512344 77.152898 
L 189.699204 76.926623 
L 189.886161 74.016293 
L 190.073021 73.976172 
L 190.259978 77.211365 
L 190.633698 72.018343 
L 190.820655 68.704568 
L 191.007515 74.640613 
L 191.194472 76.362473 
L 191.568289 68.389221 
L 191.942106 78.443585 
L 192.128966 77.633 
L 192.315923 77.922566 
L 192.68974 73.567128 
L 192.8766 74.553445 
L 193.063557 73.711745 
L 193.250417 71.146105 
L 193.437277 76.469536 
L 193.624234 78.411033 
L 193.811094 74.296852 
L 193.998051 74.101027 
L 194.184911 74.291452 
L 194.371868 73.287919 
L 194.558728 74.033509 
L 194.745685 75.308617 
L 195.119503 69.242185 
L 195.306363 73.025218 
L 195.49332 73.366922 
L 195.867137 76.909207 
L 196.053997 73.966899 
L 196.240857 76.693798 
L 196.427814 77.00764 
L 196.614674 78.100776 
L 196.801631 78.409594 
L 196.988491 81.853514 
L 197.175448 79.153702 
L 197.362308 72.742513 
L 197.736125 76.851493 
L 197.923082 73.881612 
L 198.109942 73.058236 
L 198.483759 76.427667 
L 198.670716 75.586189 
L 198.857576 73.849989 
L 199.044436 74.661769 
L 199.231393 79.144651 
L 199.418253 79.428176 
L 199.60521 78.598758 
L 199.79207 78.664992 
L 199.979027 79.918258 
L 200.352844 86.277111 
L 200.539705 82.487704 
L 200.726662 83.484687 
L 200.913522 82.238591 
L 201.100479 88.831487 
L 201.287339 88.307082 
L 201.474296 89.396567 
L 201.661156 89.025586 
L 201.848016 86.29393 
L 202.034973 88.378162 
L 202.221833 88.864106 
L 202.40879 86.283153 
L 202.59565 86.289415 
L 202.782607 87.175927 
L 202.969467 85.615879 
L 203.156424 86.438901 
L 203.343284 89.363859 
L 203.530241 87.759972 
L 203.717101 89.111626 
L 203.904058 88.900133 
L 204.090918 86.687173 
L 204.277875 85.94499 
L 204.464735 85.937355 
L 204.838552 88.39206 
L 205.025412 88.335828 
L 205.212369 90.176259 
L 205.399229 87.927559 
L 205.586186 89.819618 
L 205.773046 94.110017 
L 205.960003 90.813038 
L 206.146863 90.840568 
L 206.33382 95.249404 
L 206.520681 96.218194 
L 206.707638 92.986409 
L 206.894498 94.393896 
L 207.268315 91.322927 
L 207.455175 91.666245 
L 207.642132 93.781172 
L 207.828992 94.214757 
L 208.015949 91.445193 
L 208.202809 90.582736 
L 208.389766 91.824826 
L 208.576626 94.091119 
L 208.763583 92.287822 
L 208.950443 91.56976 
L 209.1374 95.586438 
L 209.32426 92.845842 
L 209.511217 92.106978 
L 209.885034 93.953163 
L 210.071894 91.391705 
L 210.258754 93.980006 
L 210.445711 94.729248 
L 210.632571 92.613525 
L 210.819528 94.515432 
L 211.006388 95.075311 
L 211.193345 92.048999 
L 211.380205 95.60963 
L 211.567162 95.054907 
L 211.940979 91.187715 
L 212.12784 88.781496 
L 212.501657 94.452429 
L 212.688614 92.576989 
L 213.062334 96.098385 
L 213.436151 90.875997 
L 213.996925 99.651846 
L 214.183785 97.136794 
L 214.370742 98.051167 
L 214.744559 93.301512 
L 214.931419 94.285395 
L 215.118376 91.613068 
L 215.305236 91.818475 
L 215.492193 95.306941 
L 215.679053 95.998182 
L 216.23973 92.021381 
L 216.613547 93.975226 
L 216.800504 92.43952 
L 216.987364 92.364036 
L 217.174321 93.928909 
L 217.361181 96.776413 
L 217.548138 90.615111 
L 217.734999 92.393734 
L 217.921956 89.411571 
L 218.108816 93.10436 
L 218.295773 91.365083 
L 218.482633 91.561285 
L 218.669493 95.070044 
L 218.85645 96.108011 
L 219.230267 91.655579 
L 219.604084 96.192745 
L 219.790944 94.816461 
L 219.977901 94.512998 
L 220.164761 96.538432 
L 220.538578 90.258603 
L 220.725535 94.658079 
L 221.099352 89.687328 
L 221.286212 91.123163 
L 221.473072 91.512644 
L 221.660029 94.040331 
L 221.846889 93.590879 
L 222.033846 92.621691 
L 222.407663 85.692934 
L 222.594523 90.185244 
L 222.78148 90.534493 
L 222.96834 88.669233 
L 223.155297 91.756888 
L 223.342157 92.150352 
L 223.715975 94.081293 
L 223.902932 91.59937 
L 224.089792 92.303578 
L 224.276652 93.720315 
L 224.463609 90.795622 
L 224.650469 92.355693 
L 224.837426 92.661414 
L 225.024286 90.100664 
L 225.211243 92.30152 
L 225.398103 95.894615 
L 225.58506 92.618416 
L 225.77192 92.084893 
L 225.958877 93.973677 
L 226.145737 89.091289 
L 226.332694 88.684325 
L 226.519554 88.570955 
L 226.706511 92.085823 
L 226.893371 88.224317 
L 227.080231 89.863922 
L 227.267188 89.469152 
L 227.454048 89.823292 
L 227.641005 91.351098 
L 227.827865 90.473437 
L 228.014822 90.78292 
L 228.201682 93.302066 
L 228.575499 87.223971 
L 228.949316 85.641173 
L 229.323134 88.563697 
L 229.510091 90.467507 
L 230.070768 85.920006 
L 230.257628 89.583009 
L 230.444585 90.083425 
L 230.631445 88.895442 
L 230.818402 90.903703 
L 231.005262 88.841401 
L 231.192219 83.863081 
L 231.379079 88.534043 
L 231.566036 86.841416 
L 231.752896 83.348767 
L 231.939853 90.426036 
L 232.126713 91.858397 
L 232.31367 90.436304 
L 232.50053 92.043599 
L 232.874347 86.124926 
L 233.061207 85.194974 
L 233.435024 89.276757 
L 233.808841 83.612773 
L 234.182658 84.79965 
L 234.556475 88.51541 
L 234.743432 85.612913 
L 234.930293 85.807831 
L 235.117249 88.750626 
L 235.30411 89.057917 
L 235.864787 85.64031 
L 236.051744 83.232144 
L 236.238604 82.315846 
L 236.425561 83.051899 
L 236.986238 86.469683 
L 237.173195 89.584292 
L 237.360055 84.025402 
L 237.733872 86.372379 
L 237.920829 86.900546 
L 238.107689 81.365645 
L 238.294549 81.746628 
L 238.481506 84.15486 
L 238.855323 82.231908 
L 239.042183 82.765453 
L 239.22914 82.624067 
L 239.602957 81.32039 
L 239.976774 87.976687 
L 240.163634 83.243386 
L 240.350591 81.502052 
L 240.537451 83.762303 
L 240.724408 83.510667 
L 241.098129 88.397747 
L 241.285086 83.891717 
L 241.471946 83.287335 
L 241.845763 91.968182 
L 242.03272 91.197607 
L 242.21958 89.416151 
L 242.406537 90.046336 
L 242.593397 89.242921 
L 242.780354 89.683211 
L 242.967214 91.986837 
L 243.154074 89.977491 
L 243.341031 92.321038 
L 243.527891 96.334441 
L 243.714848 94.122322 
L 243.901708 89.871025 
L 244.275525 92.236835 
L 244.462482 92.535098 
L 244.836299 88.522381 
L 245.023159 89.638819 
L 245.210116 88.433442 
L 245.396976 90.742998 
L 245.583933 89.335489 
L 245.770793 90.849508 
L 245.957653 90.356128 
L 246.331471 94.553782 
L 246.518428 92.351621 
L 246.705288 88.165253 
L 246.892245 90.355819 
L 247.079105 94.684524 
L 247.266062 93.767695 
L 247.639879 85.290131 
L 248.013696 89.983709 
L 248.200556 88.528179 
L 248.387513 88.112142 
L 248.761233 81.49559 
L 248.94819 92.521997 
L 249.508867 82.687136 
L 249.695824 86.323052 
L 249.882684 86.668341 
L 250.069641 84.016174 
L 250.256501 87.163004 
L 250.443458 83.719571 
L 250.630318 87.476381 
L 250.817275 84.718811 
L 251.004135 79.121017 
L 251.377952 90.745034 
L 251.751769 83.832874 
L 251.93863 82.810288 
L 252.125586 79.47363 
L 252.312447 83.71935 
L 252.499404 84.367061 
L 252.686264 79.731108 
L 252.873221 80.193263 
L 253.060081 81.872656 
L 253.247038 80.745153 
L 253.433898 72.610775 
L 253.620855 77.341155 
L 253.807715 79.024244 
L 253.994672 82.06857 
L 254.368392 74.51162 
L 254.555349 75.153799 
L 254.742209 76.928637 
L 254.929166 77.380324 
L 255.302983 74.347551 
L 255.6768 72.339776 
L 255.86366 74.839359 
L 256.050617 71.308913 
L 256.237477 75.650852 
L 256.424434 73.850564 
L 256.611294 75.675017 
L 256.798251 68.442731 
L 257.172068 73.776496 
L 257.358928 72.332982 
L 257.732745 72.450048 
L 258.106563 77.434121 
L 258.48038 77.495819 
L 259.041057 74.210082 
L 259.228014 78.144792 
L 259.414874 77.880763 
L 259.788691 74.614699 
L 259.975648 76.075076 
L 260.162508 76.228191 
L 260.536325 79.561418 
L 260.723185 77.749336 
L 261.097002 79.128187 
L 261.470819 73.968714 
L 261.657776 76.920847 
L 261.844636 75.156941 
L 262.031593 77.377027 
L 262.218453 74.050594 
L 262.40541 77.087749 
L 262.59227 72.472377 
L 262.966087 79.188734 
L 263.152947 77.402476 
L 263.339904 77.845754 
L 263.526765 78.816978 
L 263.713722 75.820055 
L 263.900582 76.405316 
L 264.274399 73.009816 
L 264.461356 72.725008 
L 264.648216 75.225653 
L 264.835173 75.918443 
L 265.022033 74.397873 
L 265.20899 77.01731 
L 265.769667 73.573723 
L 265.956527 73.566132 
L 266.143484 75.54713 
L 266.330344 75.255196 
L 266.517301 70.104066 
L 266.704161 79.151534 
L 266.891118 72.609492 
L 267.077978 75.658176 
L 267.264935 74.320265 
L 267.451795 74.77764 
L 267.638752 74.697375 
L 267.825612 79.167179 
L 268.012569 73.212457 
L 268.199429 72.719409 
L 268.386386 73.012228 
L 268.573246 71.741436 
L 268.760106 74.101868 
L 268.947063 74.156307 
L 269.133923 70.522471 
L 269.32088 73.813895 
L 269.507741 74.057941 
L 269.694698 72.923909 
L 269.881558 70.26725 
L 270.068515 75.933933 
L 270.255375 75.504973 
L 270.442332 73.287919 
L 270.816149 72.083338 
L 271.003009 71.792157 
L 271.189966 72.893857 
L 271.563686 70.609794 
L 271.750643 74.145043 
L 271.937503 73.778532 
L 272.12446 72.704494 
L 272.31132 74.746282 
L 272.498277 69.095133 
L 272.685137 68.176534 
L 272.872094 72.445423 
L 273.058954 72.584551 
L 273.245911 71.208643 
L 273.619728 75.556093 
L 273.806588 72.713346 
L 273.993545 67.924986 
L 274.180405 72.468769 
L 274.367265 73.094196 
L 274.554222 69.647643 
L 274.928039 72.192083 
L 275.1149 69.662625 
L 275.301857 71.849185 
L 275.488717 70.275571 
L 275.675674 70.319055 
L 275.862534 68.414161 
L 276.049491 64.727259 
L 276.423308 71.16808 
L 276.610168 69.25263 
L 276.797125 74.375102 
L 276.983985 65.969194 
L 277.170845 71.302429 
L 277.544662 65.23261 
L 277.731619 67.956676 
L 277.918479 65.178592 
L 278.292296 74.375456 
L 278.666113 68.004365 
L 278.85307 68.260781 
L 279.03993 64.402595 
L 279.226887 64.113516 
L 279.413747 69.133484 
L 279.600704 66.846434 
L 279.787564 67.426871 
L 279.974424 69.056318 
L 280.161381 65.686333 
L 280.722059 69.616795 
L 281.095876 65.490553 
L 281.282833 69.174357 
L 281.469693 69.664484 
L 281.65665 64.760453 
L 282.030467 64.598309 
L 282.217327 63.171879 
L 282.404284 63.986249 
L 282.591144 72.33015 
L 282.778004 65.055595 
L 282.964961 69.124699 
L 283.151821 67.029069 
L 283.338778 61.29644 
L 283.525638 67.274066 
L 283.712595 63.822777 
L 283.899455 62.620564 
L 284.086412 64.530394 
L 284.273272 62.572101 
L 284.460229 66.088517 
L 285.020906 62.605627 
L 285.394723 65.603945 
L 285.581583 64.841248 
L 285.76854 65.269965 
L 286.142357 60.481539 
L 286.329217 62.028664 
L 286.516174 65.073476 
L 286.703035 64.60601 
L 287.076852 61.881259 
L 287.263809 62.515449 
L 287.450669 62.125968 
L 287.637626 61.067044 
L 287.824486 63.879407 
L 288.011443 58.027875 
L 288.198303 64.131065 
L 288.385163 57.364606 
L 288.57212 56.713354 
L 288.75898 59.829247 
L 288.945937 60.12211 
L 289.132797 61.04591 
L 289.319754 62.610827 
L 289.506614 62.863658 
L 289.693571 61.816839 
L 289.880431 57.536376 
L 290.067388 59.002086 
L 290.254248 67.068239 
L 290.628065 57.818308 
L 291.001882 61.124647 
L 291.375699 58.994474 
L 291.562559 56.142742 
L 291.936376 60.903772 
L 292.123333 59.562983 
L 292.310194 64.969821 
L 292.497151 62.147256 
L 292.684011 57.118813 
L 292.870968 55.71199 
L 293.057828 56.982539 
L 293.244785 60.662648 
L 293.431645 58.340234 
L 293.618602 60.24608 
L 293.805462 57.193987 
L 293.992322 56.847349 
L 294.179279 60.722862 
L 294.366139 58.773399 
L 294.553096 55.428178 
L 294.739956 56.039552 
L 294.926913 54.723482 
L 295.113773 54.844399 
L 295.30073 57.076368 
L 295.48759 53.50215 
L 295.861407 57.81802 
L 296.048364 58.296174 
L 296.235224 58.028008 
L 296.422181 57.551048 
L 296.609041 56.611359 
L 296.795901 54.132091 
L 297.169718 57.344291 
L 297.356675 58.984781 
L 297.543535 57.769733 
L 297.730492 53.439788 
L 297.917352 53.929096 
L 298.104309 55.273226 
L 298.29117 55.784331 
L 298.478127 53.874524 
L 298.664987 54.835746 
L 298.851944 56.699236 
L 299.038804 56.704038 
L 299.225761 59.645283 
L 299.412621 60.590085 
L 299.599481 53.551875 
L 299.786438 52.714579 
L 299.973298 61.844302 
L 300.160255 54.762563 
L 300.347115 56.382915 
L 300.534072 54.143377 
L 300.907889 57.93066 
L 301.094749 54.753114 
L 301.468566 57.135963 
L 301.655523 54.938051 
L 302.02934 55.27223 
L 302.2162 54.266086 
L 302.776877 59.356492 
L 302.963834 55.519639 
L 303.150694 56.729376 
L 303.337651 50.364482 
L 303.524511 52.469759 
L 303.711468 53.068763 
L 303.898329 50.614081 
L 304.085286 52.305004 
L 304.272146 51.18715 
L 304.645963 56.474332 
L 304.83292 60.841278 
L 305.01978 57.86073 
L 305.20664 51.578711 
L 305.393597 51.307933 
L 305.580457 52.31514 
L 305.767414 54.035473 
L 306.141231 52.484431 
L 306.328091 56.192003 
L 306.888865 51.716136 
L 307.075725 46.77174 
L 307.449542 56.532821 
L 307.823359 51.512477 
L 308.010219 53.154604 
L 308.197176 56.432773 
L 308.384036 54.264869 
L 308.570993 54.414376 
L 308.757853 56.666019 
L 308.94481 56.122782 
L 309.318627 46.014266 
L 309.505488 53.472474 
L 309.692444 50.329295 
L 309.879305 57.322228 
L 310.253122 51.38864 
L 310.440079 51.094294 
L 310.626939 54.418359 
L 310.813799 49.966746 
L 311.000756 48.573665 
L 311.374573 53.853324 
L 311.561433 52.369225 
L 311.74839 49.327953 
L 312.122207 48.108501 
L 312.309067 49.925275 
L 312.496024 44.920687 
L 312.869841 52.400162 
L 313.243658 48.105182 
L 313.430518 49.930033 
L 313.617378 48.323269 
L 313.804335 48.083318 
L 313.991195 49.924656 
L 314.178152 53.897384 
L 314.551969 46.041485 
L 314.738829 47.333699 
L 314.925786 51.742802 
L 315.112646 51.347479 
L 315.299603 52.913967 
L 315.486464 51.357415 
L 315.673421 51.671876 
L 315.860281 49.310692 
L 316.047238 44.366606 
L 316.420958 54.944159 
L 316.607915 46.44462 
L 316.794775 52.252137 
L 316.981732 45.035695 
L 317.168592 49.211064 
L 317.355549 45.728241 
L 317.729366 47.70676 
L 317.916226 49.242909 
L 318.103183 48.964895 
L 318.290043 44.697842 
L 318.477 45.787858 
L 318.66386 49.212436 
L 319.037677 47.517154 
L 319.224537 47.897606 
L 319.411494 52.788249 
L 319.598354 46.020816 
L 319.785311 46.863335 
L 319.972171 44.21451 
L 320.345988 48.686526 
L 320.532945 46.814251 
L 320.906762 51.514955 
L 321.093623 46.972412 
L 321.28058 49.261564 
L 321.654397 46.916733 
L 321.841257 46.591318 
L 322.028117 46.64527 
L 322.215074 48.54711 
L 322.401934 45.773939 
L 322.588891 46.975797 
L 322.775751 44.521137 
L 323.149568 51.608077 
L 323.523385 42.864692 
L 323.710342 46.580009 
L 323.897202 45.67752 
L 324.084159 43.684063 
L 324.271019 47.721963 
L 324.457976 47.582724 
L 324.644836 51.905211 
L 325.018653 44.078545 
L 325.205513 43.316026 
L 325.57933 49.785261 
L 325.766287 45.385476 
L 325.953147 47.519345 
L 326.326964 43.660229 
L 326.513921 49.979581 
L 326.700781 48.709475 
L 326.887738 46.528912 
L 327.448416 49.943753 
L 327.635276 49.542854 
L 327.822233 42.407318 
L 328.19605 44.477697 
L 328.38291 47.424652 
L 328.569867 41.78271 
L 328.756727 41.516933 
L 329.130544 45.36983 
L 329.504361 50.128182 
L 329.691318 48.694626 
L 330.438855 38.88933 
L 330.625812 42.683584 
L 330.812672 42.571475 
L 331.186489 46.275971 
L 331.373446 41.921838 
L 331.560306 40.912264 
L 331.747263 44.682064 
L 331.934123 42.419821 
L 332.12108 38.116277 
L 332.494897 42.534386 
L 332.868715 37.210224 
L 333.242435 36.277063 
L 333.429392 45.206491 
L 333.616252 36.885384 
L 333.803209 41.800192 
L 333.990069 43.119116 
L 334.177026 43.475669 
L 334.363886 45.304061 
L 334.550843 43.869443 
L 334.92466 44.602154 
L 335.11152 41.91427 
L 335.485337 52.826223 
L 335.672294 51.269914 
L 335.859154 52.134164 
L 336.046014 58.280418 
L 336.232971 52.852358 
L 336.606788 58.870659 
L 336.793648 61.388477 
L 337.167465 56.286253 
L 337.354422 65.449613 
L 337.728239 60.998664 
L 337.915099 65.518414 
L 338.102056 62.949809 
L 338.288917 65.632957 
L 338.475873 61.752221 
L 338.849594 66.572491 
L 339.223411 62.299752 
L 339.410368 63.614582 
L 339.597228 62.020764 
L 339.784185 67.71803 
L 339.971045 69.667892 
L 340.158002 65.581616 
L 340.344862 67.527782 
L 340.531819 74.160002 
L 340.718679 73.286901 
L 340.905636 65.841285 
L 341.092496 67.184331 
L 341.279453 70.945677 
L 341.653173 67.30819 
L 342.02699 74.205678 
L 342.213947 69.910654 
L 342.400807 62.990859 
L 342.587764 69.079443 
L 342.774624 63.916939 
L 342.961581 65.021427 
L 343.148441 64.550354 
L 343.522258 57.294765 
L 343.709215 57.615357 
L 344.083032 64.062596 
L 344.456753 52.406137 
L 344.64371 56.96603 
L 344.83057 56.496573 
L 345.017527 53.91885 
L 345.204387 53.106074 
L 345.391344 55.220491 
L 345.578204 54.617415 
L 345.765161 48.494596 
L 345.952021 46.248773 
L 346.325838 55.368428 
L 346.512795 55.422977 
L 346.886612 52.561597 
L 347.073472 47.199262 
L 347.260332 54.66599 
L 347.447289 49.139851 
L 347.634149 47.556899 
L 347.821106 48.77292 
L 348.194923 49.134806 
L 348.56874 42.846435 
L 348.7556 44.208756 
L 348.942557 47.348659 
L 349.129417 47.241485 
L 349.316374 43.481754 
L 349.503234 44.446339 
L 349.877052 50.950407 
L 350.063912 49.54261 
L 350.250869 42.025936 
L 350.437729 39.516262 
L 350.624686 41.931155 
L 350.811546 42.057692 
L 350.998503 45.10527 
L 351.37232 36.218044 
L 351.55918 47.697023 
L 351.746137 48.318954 
L 351.932997 51.576963 
L 352.119954 46.685103 
L 352.306814 45.395323 
L 352.680631 47.199417 
L 352.867588 44.053716 
L 353.054448 46.88615 
L 353.241308 35.499296 
L 353.428265 38.407591 
L 353.615125 49.037745 
L 353.802082 48.239553 
L 353.988942 43.011854 
L 354.175899 46.768886 
L 354.362759 47.160137 
L 354.549716 43.208653 
L 354.736576 44.301789 
L 354.923533 47.814288 
L 355.110393 45.954693 
L 355.29735 47.298779 
L 355.48421 42.162808 
L 355.671167 40.553233 
L 355.858028 45.292841 
L 356.044888 44.826548 
L 356.231845 48.088695 
L 356.418705 48.537771 
L 356.605662 47.481592 
L 356.792522 49.800354 
L 356.979479 48.443743 
L 357.353296 49.930122 
L 357.540156 45.695998 
L 357.727113 46.202301 
L 357.913973 45.485833 
L 358.10093 43.996312 
L 358.28779 50.538907 
L 358.661607 42.337764 
L 358.848467 42.168982 
L 359.035424 51.182325 
L 359.222284 52.579234 
L 359.409241 47.021761 
L 359.596101 48.278833 
L 359.783058 51.066211 
L 359.969918 55.982591 
L 360.156875 48.738797 
L 360.343735 47.536783 
L 360.530692 45.318246 
L 360.717552 46.195552 
L 360.904509 51.063445 
L 361.091369 52.750739 
L 361.278326 49.05764 
L 361.465187 48.741673 
L 361.652047 47.925888 
L 361.839004 48.268542 
L 362.025864 51.155504 
L 362.399681 49.324257 
L 362.586638 45.866551 
L 362.773498 48.278988 
L 362.960455 49.028783 
L 363.147315 46.234765 
L 363.334272 47.969572 
L 363.521132 46.421584 
L 363.708089 47.604854 
L 363.894949 46.925054 
L 364.081906 44.50142 
L 364.268766 46.387681 
L 364.455626 46.038122 
L 364.642583 47.414384 
L 364.829443 46.182717 
L 365.20326 45.574993 
L 365.390217 51.255707 
L 365.577077 50.347774 
L 365.764034 48.717065 
L 365.950894 51.611772 
L 366.137851 46.231313 
L 366.324711 44.75726 
L 366.698528 48.287773 
L 366.885485 45.322716 
L 367.072346 45.447704 
L 367.259206 46.506097 
L 367.446163 48.438254 
L 367.633023 46.457212 
L 367.81998 49.947206 
L 368.193797 46.502954 
L 368.380657 52.502091 
L 368.567614 52.630686 
L 368.754474 51.713812 
L 368.941431 52.79232 
L 369.128291 47.836949 
L 369.315248 49.65255 
L 369.502108 48.968723 
L 369.689065 50.906723 
L 369.875925 46.692605 
L 370.062785 47.826017 
L 370.249742 41.971077 
L 370.436602 49.278006 
L 370.623559 49.375554 
L 370.810419 50.944366 
L 371.371193 42.969786 
L 371.558053 45.820366 
L 371.74501 51.435709 
L 371.93187 48.110161 
L 372.118827 48.737137 
L 372.305687 50.464242 
L 372.492644 49.902172 
L 372.679504 45.665127 
L 372.866365 46.85331 
L 373.240182 44.94607 
L 373.427139 51.465717 
L 373.613999 48.153269 
L 373.800956 46.971681 
L 373.987816 51.712838 
L 374.174773 49.441633 
L 374.174773 49.441633 
" clip-path="url(#p47a85e8fb1)" style="fill: none; stroke: #000000; stroke-width: 1.5; stroke-linecap: square"/>
   </g>
   <g id="line2d_16">
    <path d="M 49.520227 102.987755 
L 50.454754 111.804593 
L 51.576185 122.59904 
L 52.136902 126.530078 
L 52.510712 128.609286 
L 52.884523 130.014968 
L 54.753581 138.75006 
L 55.501196 141.28171 
L 56.24882 142.972722 
L 57.183343 144.07685 
L 57.55716 145.050345 
L 58.117876 145.475054 
L 58.678592 146.174024 
L 59.239308 146.872542 
L 59.800024 147.052557 
L 60.36074 147.064294 
L 60.921456 147.612124 
L 61.108355 147.734476 
L 61.295263 147.626954 
L 61.482172 147.700698 
L 61.66907 147.934863 
L 61.855979 147.90838 
L 62.042887 147.622432 
L 62.229786 147.57731 
L 62.416695 147.753881 
L 62.603603 147.75732 
L 62.790502 147.552585 
L 63.164319 147.469556 
L 63.351218 147.651612 
L 63.538127 147.660625 
L 63.911934 147.117282 
L 64.285751 147.017554 
L 64.659558 146.666789 
L 65.033366 146.459349 
L 65.407183 146.601656 
L 65.78099 146.275386 
L 66.154798 146.771397 
L 66.528615 146.673561 
L 66.902422 146.651042 
L 67.089331 147.113826 
L 67.650046 147.13765 
L 67.836945 147.362974 
L 68.210762 146.934463 
L 68.397661 146.983756 
L 69.706002 149.085342 
L 69.89291 149.003241 
L 70.266717 149.128508 
L 70.453626 149.004763 
L 70.640525 149.185583 
L 71.014342 150.092671 
L 71.388149 150.293783 
L 71.948865 150.827144 
L 73.257205 153.762239 
L 73.444104 153.766709 
L 73.631013 153.961529 
L 73.817921 154.34559 
L 74.191729 154.560836 
L 74.565536 155.65997 
L 74.752445 155.790785 
L 74.939353 155.702688 
L 75.126252 155.775277 
L 75.500069 156.486837 
L 75.686968 156.599408 
L 76.060785 156.287735 
L 76.247684 156.367488 
L 77.182217 157.815386 
L 77.369116 157.937636 
L 77.556024 157.701623 
L 77.742933 157.699807 
L 77.929831 157.812627 
L 78.11674 157.7089 
L 78.303649 157.263335 
L 78.864364 157.349559 
L 79.051263 157.520796 
L 79.238172 157.484121 
L 79.611979 156.9149 
L 79.798888 156.92149 
L 79.985796 157.155685 
L 80.546512 158.29054 
L 80.733411 158.251488 
L 81.294127 157.603776 
L 81.481035 157.390095 
L 81.854843 156.369481 
L 82.22866 156.090601 
L 82.415559 155.798486 
L 82.789376 155.90899 
L 83.163183 155.981121 
L 83.53699 156.407618 
L 84.471523 156.928109 
L 84.845331 157.421474 
L 85.032239 157.303371 
L 85.592955 156.298886 
L 85.966763 155.885593 
L 86.34057 156.066045 
L 86.714387 156.093246 
L 87.088194 156.162071 
L 87.64891 155.672223 
L 88.022718 155.782211 
L 88.583434 155.928722 
L 88.770342 155.725543 
L 89.331058 154.572072 
L 90.078682 153.6744 
L 90.45249 153.297128 
L 90.639398 153.201612 
L 91.200114 152.181408 
L 91.76083 151.79411 
L 92.321546 152.564994 
L 92.695353 153.094772 
L 93.256069 153.651314 
L 94.190592 154.686406 
L 94.377501 154.909248 
L 94.938217 154.708688 
L 95.498933 154.60942 
L 96.246557 155.237367 
L 96.433466 155.176344 
L 96.620365 154.974742 
L 96.807273 154.525455 
L 96.994182 154.543905 
L 97.367989 154.124759 
L 97.928705 153.979848 
L 98.489421 153.222377 
L 98.863228 153.233613 
L 99.237045 153.014926 
L 99.423944 153.056671 
L 99.797761 153.659553 
L 100.171569 153.522414 
L 100.545376 153.29273 
L 100.732284 153.322128 
L 101.106092 152.750411 
L 101.853716 152.086533 
L 102.414432 152.186181 
L 102.975148 152.12947 
L 103.348955 152.46881 
L 103.535864 152.373664 
L 103.909671 152.009684 
L 104.283488 151.951102 
L 105.218012 150.767456 
L 105.591819 150.912424 
L 106.339443 150.04235 
L 106.71326 149.702615 
L 106.900159 149.722786 
L 107.087068 149.559122 
L 108.021591 149.675993 
L 108.2085 149.285827 
L 108.395408 149.194044 
L 108.582307 149.282952 
L 109.143023 150.160765 
L 109.329931 150.090743 
L 110.077556 149.285985 
L 110.264455 149.348701 
L 110.451363 149.604332 
L 110.825171 149.419284 
L 111.012079 149.113585 
L 111.385886 148.102372 
L 111.572795 147.793138 
L 111.946602 146.631217 
L 112.133511 146.723114 
L 112.320419 146.677603 
L 113.068034 145.988756 
L 113.62875 146.255532 
L 114.189466 147.000258 
L 114.563283 147.102392 
L 114.750182 146.878083 
L 115.310898 146.914277 
L 116.058522 145.993718 
L 116.43233 145.45066 
L 117.179954 144.490935 
L 117.553761 144.600677 
L 117.74067 144.544809 
L 118.488294 146.055581 
L 119.04901 146.234107 
L 119.796625 145.21559 
L 120.357341 144.99039 
L 120.544249 144.821273 
L 120.918057 144.767903 
L 121.478773 144.341351 
L 121.85259 144.970292 
L 122.039489 144.993207 
L 122.600204 144.595596 
L 122.974021 144.405584 
L 123.347829 144.106334 
L 123.721636 144.217997 
L 124.095453 144.109012 
L 124.843068 142.529032 
L 125.029977 142.467018 
L 125.216885 142.550004 
L 125.403784 142.962141 
L 126.151408 142.22017 
L 126.338317 142.163116 
L 126.712124 142.458002 
L 127.27284 142.354374 
L 128.207363 141.163386 
L 128.394272 141.255255 
L 128.768079 141.719595 
L 128.954988 141.689874 
L 129.141896 141.419291 
L 129.515704 140.50615 
L 130.450227 139.695474 
L 131.010943 138.282095 
L 131.38476 137.842367 
L 131.571659 137.507042 
L 131.945476 137.442649 
L 132.132375 137.576866 
L 132.506192 138.091107 
L 132.879999 137.645914 
L 133.066908 137.676284 
L 133.253806 137.859801 
L 133.814522 138.842576 
L 134.001431 138.896917 
L 134.562147 138.505172 
L 134.749055 138.624066 
L 135.122863 138.36608 
L 135.870487 137.194729 
L 136.057386 136.919561 
L 136.618102 135.391891 
L 136.991919 135.540454 
L 137.178818 135.648899 
L 137.365726 135.593361 
L 137.739534 135.064744 
L 138.113351 134.337944 
L 138.30025 134.231204 
L 138.487158 134.257214 
L 138.674067 134.156274 
L 138.860965 134.201616 
L 139.047874 133.947241 
L 139.60859 133.957572 
L 139.795498 133.981898 
L 140.356214 134.519006 
L 140.730022 134.47093 
L 141.290738 133.553729 
L 141.477646 133.411738 
L 141.851492 132.569585 
L 142.038352 132.578731 
L 142.225309 132.385021 
L 142.412169 132.381682 
L 142.972847 131.885303 
L 143.533621 131.593489 
L 143.720481 131.586145 
L 144.468115 130.579599 
L 144.841932 129.510225 
L 145.028889 129.491844 
L 145.589566 128.141422 
L 145.776426 128.128402 
L 146.52406 126.538686 
L 146.711017 126.465904 
L 147.084834 125.726485 
L 147.271694 125.78492 
L 147.832468 126.426946 
L 148.019328 126.458656 
L 148.393145 126.369165 
L 148.766962 126.469087 
L 148.953823 126.131712 
L 149.14078 126.182784 
L 149.32764 126.425664 
L 149.701457 125.982681 
L 150.075274 125.512272 
L 150.449091 124.67273 
L 150.822908 124.429811 
L 151.196725 123.649163 
L 152.318176 122.876488 
L 152.505036 122.521622 
L 152.691993 122.410582 
L 152.878853 122.42968 
L 153.06581 122.255602 
L 154.000304 120.520546 
L 154.374121 120.015954 
L 154.934799 118.091789 
L 155.121756 118.172331 
L 155.308616 118.067336 
L 155.495573 117.683195 
L 155.682433 117.646555 
L 155.86939 117.77171 
L 156.05625 117.659489 
L 156.430067 117.28637 
L 156.990744 116.973511 
L 158.112195 114.861755 
L 158.859829 113.116801 
L 159.233646 112.852688 
L 159.420506 112.833458 
L 160.168141 111.492051 
L 160.728915 111.278794 
L 161.102732 110.369908 
L 161.476549 110.07673 
L 161.663409 109.825456 
L 161.850366 109.780814 
L 162.037226 109.588491 
L 162.411043 108.957975 
L 162.597903 109.018449 
L 162.78486 108.892134 
L 163.158677 107.939031 
L 165.588439 101.351263 
L 166.336074 100.553813 
L 166.709891 100.338033 
L 166.896751 100.173367 
L 167.831245 98.52743 
L 168.018202 98.602161 
L 168.205062 98.499311 
L 168.578879 96.790294 
L 168.952696 95.339045 
L 169.326513 94.207489 
L 169.887287 92.262938 
L 170.447964 91.943159 
L 170.821781 91.155128 
L 171.008641 91.499702 
L 171.382458 94.49948 
L 171.569415 94.450485 
L 171.756276 91.176961 
L 172.690867 65.919902 
L 173.064684 61.232756 
L 173.251544 59.752236 
L 173.438404 59.339795 
L 173.625361 60.091955 
L 173.999178 63.952601 
L 174.372995 70.191489 
L 175.120629 87.653013 
L 175.307489 87.779743 
L 175.681306 84.189152 
L 176.055123 83.107584 
L 176.241983 82.836706 
L 176.42894 82.971075 
L 176.6158 83.372635 
L 176.802757 83.280361 
L 176.989617 82.800203 
L 177.176574 82.703812 
L 177.550391 83.137425 
L 177.737252 82.950232 
L 177.924209 82.323712 
L 178.671843 81.762666 
L 179.04566 81.90865 
L 179.23252 81.599268 
L 179.606337 80.153032 
L 179.980154 78.587439 
L 180.167014 78.575867 
L 180.727788 77.407643 
L 181.101605 76.627169 
L 181.475422 75.371952 
L 181.662282 74.603046 
L 181.849239 74.422492 
L 183.344411 69.371807 
L 183.531368 69.243019 
L 184.279002 70.797738 
L 184.839679 72.784116 
L 185.213496 74.357033 
L 185.587313 75.374284 
L 185.774173 75.380552 
L 185.96113 75.122496 
L 186.14799 75.086392 
L 186.521807 75.553159 
L 187.269441 75.010858 
L 187.456398 75.063073 
L 187.830118 74.903179 
L 188.764709 76.265433 
L 188.95157 76.432627 
L 189.325387 75.87132 
L 189.886161 75.039226 
L 190.633698 73.537514 
L 191.007515 73.677926 
L 192.128966 74.591809 
L 192.502783 75.466667 
L 192.68974 75.559282 
L 192.8766 75.187703 
L 193.063557 75.319154 
L 193.250417 75.72325 
L 193.437277 75.350188 
L 193.811094 74.005487 
L 193.998051 73.704358 
L 194.558728 73.674799 
L 194.745685 73.533872 
L 194.932546 73.552094 
L 195.306363 73.391568 
L 195.867137 75.368189 
L 196.240857 76.513766 
L 196.988491 77.406806 
L 197.362308 76.563177 
L 197.736125 75.80062 
L 197.923082 75.70248 
L 198.483759 74.804254 
L 198.857576 75.676874 
L 199.231393 77.491342 
L 199.60521 78.842498 
L 200.726662 85.260506 
L 201.287339 87.019999 
L 201.661156 87.544629 
L 202.034973 87.435049 
L 202.59565 88.023876 
L 202.782607 87.799406 
L 202.969467 87.280708 
L 203.343284 87.03626 
L 203.717101 87.298106 
L 203.904058 87.028407 
L 204.464735 87.6922 
L 204.651595 87.803335 
L 205.586186 90.667923 
L 206.33382 93.045977 
L 206.520681 93.238235 
L 206.894498 93.366351 
L 207.081455 93.393262 
L 207.642132 92.805884 
L 207.828992 92.841925 
L 208.202809 92.394289 
L 208.389766 92.344584 
L 209.32426 92.952772 
L 209.511217 92.866279 
L 209.698077 93.031853 
L 210.258754 93.917784 
L 210.819528 93.65103 
L 211.006388 93.373101 
L 211.380205 93.333049 
L 211.567162 93.388733 
L 211.940979 92.890706 
L 212.12784 92.48238 
L 212.501657 92.751358 
L 212.875474 93.630778 
L 213.623108 95.422215 
L 213.996925 95.720007 
L 214.370742 95.54915 
L 214.557602 95.514343 
L 214.931419 95.012663 
L 215.118376 94.933058 
L 215.305236 94.480175 
L 215.492193 93.617011 
L 215.865913 93.248832 
L 216.05287 93.493062 
L 216.23973 93.363589 
L 216.426687 93.527098 
L 216.613547 93.484102 
L 216.987364 92.877135 
L 217.361181 92.542227 
L 217.734999 92.460206 
L 218.108816 92.717031 
L 218.295773 92.663102 
L 218.482633 92.936437 
L 218.669493 93.437741 
L 218.85645 93.472187 
L 219.04331 93.663931 
L 219.417127 94.480463 
L 219.790944 94.251494 
L 219.977901 93.848729 
L 220.538578 93.478571 
L 221.099352 92.557317 
L 221.473072 91.248656 
L 221.846889 90.542703 
L 222.033846 90.479177 
L 222.220706 90.650931 
L 222.594523 90.664905 
L 222.96834 91.057523 
L 223.342157 91.216085 
L 223.529114 91.087211 
L 224.463609 92.918602 
L 224.650469 93.023448 
L 225.77192 91.564046 
L 226.519554 90.445016 
L 226.893371 90.541635 
L 227.827865 89.574227 
L 228.014822 89.760398 
L 228.201682 89.729908 
L 228.575499 88.922662 
L 228.762456 88.888094 
L 228.949316 88.489015 
L 229.136273 88.376939 
L 229.323134 88.520157 
L 229.510091 88.280732 
L 229.696951 88.29699 
L 229.883811 88.461602 
L 230.070768 88.164096 
L 230.818402 88.251973 
L 231.379079 88.468875 
L 231.566036 88.471499 
L 231.939853 88.776605 
L 232.68739 87.910214 
L 232.874347 87.997722 
L 233.061207 87.953034 
L 233.435024 86.986496 
L 233.621981 86.67424 
L 233.808841 86.076957 
L 233.995798 86.042668 
L 234.556475 86.858236 
L 234.743432 86.908147 
L 235.117249 86.312605 
L 235.30411 85.955472 
L 235.49097 86.242223 
L 235.677927 86.2675 
L 236.051744 85.639086 
L 236.612421 85.511669 
L 237.173195 84.921841 
L 237.733872 85.002665 
L 237.920829 84.720889 
L 238.294549 83.824527 
L 238.855323 82.939939 
L 239.042183 82.629148 
L 239.416 82.786935 
L 239.789817 83.139534 
L 240.350591 83.816257 
L 241.471946 87.188071 
L 241.658903 87.325274 
L 241.845763 87.959287 
L 242.21958 89.927818 
L 243.341031 92.339445 
L 243.527891 91.918128 
L 243.901708 91.780316 
L 244.088665 91.73984 
L 244.649342 90.773374 
L 245.023159 90.673595 
L 245.396976 89.968038 
L 245.770793 91.185785 
L 246.331471 91.257491 
L 246.892245 91.667879 
L 247.266062 90.150762 
L 248.387513 87.588007 
L 248.574373 87.441384 
L 248.94819 86.384723 
L 249.13505 86.752363 
L 249.322007 86.737471 
L 249.695824 85.687861 
L 249.882684 85.624106 
L 250.256501 85.979233 
L 250.443458 85.836347 
L 250.817275 84.740582 
L 251.004135 84.848616 
L 251.564812 84.552069 
L 251.93863 83.600297 
L 252.312447 82.225205 
L 252.873221 80.890453 
L 253.247038 79.061014 
L 253.433898 78.983355 
L 253.807715 78.420769 
L 254.742209 75.842849 
L 254.929166 75.781217 
L 255.302983 75.261097 
L 255.6768 73.908722 
L 256.050617 73.353744 
L 256.611294 72.406683 
L 256.798251 72.537968 
L 257.545788 73.774335 
L 257.732745 74.104147 
L 257.919606 74.703233 
L 258.106563 74.907129 
L 258.66724 76.163636 
L 259.041057 76.409242 
L 259.601831 77.187335 
L 259.788691 77.054457 
L 260.162508 77.080555 
L 260.349368 77.318156 
L 260.536325 77.329498 
L 260.723185 77.531926 
L 260.910142 77.379529 
L 261.097002 76.818424 
L 261.844636 76.291561 
L 262.218453 76.103887 
L 262.59227 76.398982 
L 262.966087 76.207285 
L 263.152947 76.370948 
L 263.526765 75.960778 
L 263.713722 76.03216 
L 264.087539 75.944186 
L 264.461356 75.403217 
L 264.648216 75.179468 
L 264.835173 74.44092 
L 265.022033 74.534123 
L 265.20899 74.347488 
L 265.39585 74.376422 
L 265.769667 74.59955 
L 265.956527 74.494909 
L 266.330344 74.813006 
L 266.517301 74.72803 
L 266.704161 74.811661 
L 267.077978 74.587193 
L 267.264935 74.849216 
L 267.451795 74.78607 
L 268.386386 73.73398 
L 268.573246 73.260854 
L 268.760106 73.487843 
L 268.947063 73.284491 
L 269.133923 73.277268 
L 269.507741 73.032342 
L 269.694698 73.022338 
L 269.881558 73.184209 
L 270.442332 72.89703 
L 270.816149 73.220229 
L 271.003009 73.094655 
L 271.189966 72.686641 
L 271.563686 72.393429 
L 271.937503 71.715446 
L 272.12446 72.089651 
L 272.685137 72.222947 
L 272.872094 72.184064 
L 273.058954 72.017084 
L 273.245911 72.091177 
L 273.619728 71.703378 
L 273.806588 71.720852 
L 274.367265 72.080335 
L 274.928039 70.359717 
L 275.1149 70.394724 
L 275.301857 69.912632 
L 275.488717 69.824665 
L 275.675674 70.116993 
L 275.862534 70.032629 
L 276.797125 68.660574 
L 277.170845 68.993289 
L 277.357802 69.267989 
L 277.544662 69.077269 
L 277.731619 69.097531 
L 277.918479 68.927027 
L 278.105436 68.3041 
L 278.666113 67.725869 
L 278.85307 67.876591 
L 279.03993 67.684304 
L 279.226887 67.970013 
L 279.413747 67.788724 
L 279.600704 67.392302 
L 279.787564 67.478913 
L 279.974424 67.221847 
L 280.161381 67.194125 
L 280.535198 67.786922 
L 280.722059 67.290934 
L 280.909015 67.448 
L 281.282833 66.672393 
L 281.469693 66.989097 
L 281.65665 66.65972 
L 281.84351 66.595343 
L 282.030467 66.678131 
L 282.591144 65.779227 
L 282.964961 65.601625 
L 283.338778 65.25398 
L 283.525638 65.233038 
L 284.834046 63.674211 
L 285.207863 64.109712 
L 285.394723 63.821532 
L 285.581583 63.965774 
L 285.76854 63.937771 
L 285.9554 63.578237 
L 286.142357 63.703427 
L 286.329217 63.182021 
L 286.516174 63.364574 
L 286.703035 63.3806 
L 287.824486 61.067245 
L 288.011443 61.115317 
L 288.198303 60.78871 
L 288.385163 60.044896 
L 288.57212 60.139815 
L 288.75898 60.460821 
L 288.945937 60.536339 
L 289.132797 60.459219 
L 289.506614 60.705444 
L 289.880431 61.100745 
L 290.067388 60.760067 
L 290.254248 60.994237 
L 290.628065 60.047476 
L 291.001882 60.185888 
L 291.188742 60.089608 
L 291.375699 59.855904 
L 291.562559 59.888342 
L 291.936376 59.54203 
L 292.123333 59.299942 
L 292.310194 59.455743 
L 292.684011 59.435178 
L 292.870968 59.353114 
L 293.057828 59.416023 
L 293.244785 59.312964 
L 293.805462 57.945249 
L 294.179279 56.872141 
L 294.553096 56.967943 
L 294.926913 56.657915 
L 295.113773 56.333803 
L 295.30073 56.258694 
L 295.48759 56.023374 
L 296.048364 56.459182 
L 296.422181 56.926022 
L 296.795901 56.976106 
L 297.356675 56.096055 
L 297.543535 55.567772 
L 297.917352 55.896588 
L 298.104309 55.56751 
L 298.664987 56.273224 
L 299.038804 56.037289 
L 299.786438 56.77504 
L 300.347115 56.65547 
L 300.907889 55.471618 
L 301.094749 55.473118 
L 301.281706 55.65058 
L 301.468566 56.399314 
L 301.655523 56.372946 
L 301.842383 56.049371 
L 302.02934 56.489237 
L 302.40306 56.138652 
L 303.150694 54.022881 
L 303.524511 54.341053 
L 303.711468 54.236321 
L 304.459103 53.240514 
L 304.645963 53.367857 
L 305.20664 54.85708 
L 306.141231 53.454733 
L 306.515048 52.387136 
L 306.701908 52.281771 
L 307.075725 52.959643 
L 307.449542 53.790508 
L 307.636499 53.617267 
L 307.823359 53.751737 
L 308.010219 53.352975 
L 308.197176 53.232613 
L 308.570993 53.815721 
L 308.757853 53.75152 
L 308.94481 53.858982 
L 309.505488 52.891736 
L 310.066262 52.136103 
L 310.253122 52.144492 
L 310.440079 51.872369 
L 310.626939 51.912275 
L 311.187616 51.301302 
L 311.561433 50.28996 
L 311.74839 49.808163 
L 311.93525 49.879106 
L 312.122207 49.693189 
L 312.309067 49.196785 
L 312.496024 49.06865 
L 312.682884 49.481895 
L 312.869841 49.457447 
L 313.056701 48.997191 
L 313.243658 48.854784 
L 313.430518 48.95275 
L 314.178152 50.195186 
L 314.365012 50.267872 
L 314.551969 49.66107 
L 314.738829 49.998651 
L 314.925786 50.099999 
L 315.112646 50.518445 
L 315.299603 50.407279 
L 315.486464 50.582035 
L 315.673421 50.448002 
L 316.047238 49.710981 
L 316.420958 49.755633 
L 317.168592 47.882961 
L 317.355549 47.788404 
L 317.542409 47.417258 
L 317.729366 47.699798 
L 317.916226 47.766184 
L 318.290043 47.415577 
L 318.477 47.677978 
L 318.66386 47.565412 
L 318.850817 47.745768 
L 319.037677 47.409975 
L 319.224537 47.73503 
L 319.598354 47.669107 
L 319.972171 48.070505 
L 320.159128 48.308268 
L 320.532945 47.984211 
L 320.906762 48.105938 
L 321.28058 47.42543 
L 321.654397 48.125417 
L 321.841257 48.042279 
L 322.775751 46.394284 
L 323.336525 47.059071 
L 323.523385 46.965086 
L 323.710342 46.729012 
L 323.897202 46.806151 
L 324.084159 46.707246 
L 324.457976 46.978297 
L 324.831696 46.292563 
L 325.018653 46.449471 
L 325.39247 46.961716 
L 325.57933 46.715498 
L 325.766287 46.779004 
L 325.953147 47.216143 
L 326.513921 47.084251 
L 326.887738 47.88698 
L 327.074599 47.58882 
L 327.448416 46.41594 
L 327.822233 45.662616 
L 328.19605 45.568451 
L 328.38291 45.388732 
L 328.569867 45.631965 
L 328.756727 45.469513 
L 329.317501 44.514029 
L 329.691318 45.101817 
L 330.065135 44.451332 
L 330.438855 44.478096 
L 331.186489 42.374137 
L 331.373446 42.064144 
L 331.560306 41.452412 
L 331.747263 41.575625 
L 332.12108 40.901964 
L 332.681758 39.465896 
L 332.868715 39.307846 
L 333.055575 39.387348 
L 333.242435 40.003903 
L 333.616252 39.982738 
L 334.363886 42.907959 
L 337.167465 60.75129 
L 337.728239 62.985371 
L 337.915099 63.038702 
L 338.288917 63.618397 
L 338.475873 63.817669 
L 338.662734 63.741087 
L 338.849594 64.096421 
L 339.036551 64.746048 
L 339.223411 64.935942 
L 339.971045 67.030373 
L 340.158002 67.235623 
L 340.905636 69.988359 
L 341.092496 70.327249 
L 341.466313 70.355388 
L 341.84013 69.610814 
L 342.02699 68.851699 
L 342.400807 66.768543 
L 342.587764 66.505381 
L 342.774624 65.793891 
L 343.709215 59.641853 
L 344.269893 57.752021 
L 344.64371 55.445679 
L 345.017527 54.16934 
L 345.204387 54.184451 
L 345.578204 52.946 
L 345.952021 52.330423 
L 346.138978 52.484842 
L 346.699655 51.830754 
L 346.886612 51.638991 
L 347.447289 50.188261 
L 347.634149 49.874866 
L 348.194923 46.592577 
L 348.381783 46.60039 
L 348.56874 46.784895 
L 348.942557 46.54899 
L 349.129417 45.809033 
L 349.503234 46.036425 
L 349.877052 44.524261 
L 350.063912 43.968276 
L 350.437729 44.090677 
L 350.811546 43.661035 
L 351.55918 44.833443 
L 351.746137 44.499797 
L 351.932997 44.747456 
L 352.119954 45.516483 
L 352.306814 45.547036 
L 352.493771 45.334469 
L 352.680631 45.468163 
L 353.054448 45.301014 
L 353.241308 45.016412 
L 353.428265 44.116105 
L 353.802082 44.519791 
L 354.175899 44.827447 
L 354.362759 44.668991 
L 354.549716 44.700622 
L 354.736576 45.037954 
L 354.923533 45.12387 
L 355.110393 45.656035 
L 355.48421 44.872933 
L 355.858028 46.101771 
L 356.044888 46.333437 
L 356.231845 46.840128 
L 356.605662 47.118114 
L 356.979479 47.945811 
L 357.353296 47.561025 
L 357.540156 47.531766 
L 358.10093 46.184781 
L 358.474747 46.807028 
L 358.848467 47.655444 
L 359.222284 47.892259 
L 359.596101 48.896682 
L 359.969918 49.511247 
L 360.156875 49.331736 
L 360.530692 49.88218 
L 360.717552 49.794672 
L 360.904509 49.217188 
L 361.091369 49.128173 
L 361.278326 49.380689 
L 361.652047 48.850834 
L 361.839004 48.713988 
L 362.025864 49.100201 
L 362.212821 49.184825 
L 362.399681 48.954076 
L 362.960455 47.588901 
L 363.147315 47.579035 
L 363.334272 47.36771 
L 363.708089 46.387147 
L 364.081906 46.158169 
L 364.455626 47.03519 
L 364.829443 47.161145 
L 365.0164 47.552242 
L 365.390217 47.82802 
L 365.577077 47.735722 
L 365.764034 47.880281 
L 366.324711 47.657936 
L 366.698528 47.063936 
L 367.072346 46.816511 
L 367.259206 46.978266 
L 367.81998 48.288125 
L 368.193797 49.643426 
L 368.380657 50.169073 
L 368.754474 50.182437 
L 369.128291 49.750434 
L 369.315248 49.698155 
L 369.502108 49.777049 
L 370.062785 48.197935 
L 370.436602 47.176054 
L 370.623559 47.084271 
L 371.184236 47.683594 
L 371.371193 47.877938 
L 371.558053 47.621605 
L 371.93187 47.979516 
L 372.118827 47.846669 
L 372.305687 47.444784 
L 372.679504 47.577336 
L 373.240182 48.081155 
L 373.800956 48.946383 
L 374.174773 49.721439 
L 374.174773 49.721439 
" clip-path="url(#p47a85e8fb1)" style="fill: none; stroke: #bf00bf; stroke-width: 1.5; stroke-linecap: square"/>
   </g>
   <g id="line2d_17">
    <path d="M 49.520227 131.322606 
L 54.94048 139.719133 
L 56.622627 142.630584 
L 58.117876 144.704757 
L 59.239308 145.90152 
L 60.36074 146.782883 
L 62.042887 147.81341 
L 64.659558 149.39489 
L 76.621501 156.60374 
L 77.742933 157.023742 
L 79.238172 157.248865 
L 81.107228 157.335135 
L 85.219138 156.73885 
L 90.45249 155.653946 
L 97.367989 154.250709 
L 102.975148 152.357665 
L 107.273976 150.696998 
L 118.114477 146.346969 
L 123.908545 143.893774 
L 129.328795 141.14132 
L 135.309771 137.741878 
L 141.290738 133.345207 
L 145.028889 129.979566 
L 150.636048 124.463848 
L 153.439627 121.20532 
L 157.551518 115.681084 
L 162.597903 108.239616 
L 164.280128 105.303543 
L 168.392019 98.168351 
L 171.756276 93.095722 
L 176.802757 85.984049 
L 178.111069 84.384023 
L 179.23252 83.523727 
L 180.353971 83.125656 
L 188.764709 80.365585 
L 189.138526 80.450235 
L 201.474296 87.462013 
L 203.343284 89.032504 
L 206.894498 92.10761 
L 208.015949 92.603984 
L 212.12784 94.032318 
L 214.183785 94.56683 
L 215.118376 94.512521 
L 220.912395 93.518556 
L 227.454048 92.09484 
L 232.68739 91.341123 
L 243.901708 90.983845 
L 245.396976 90.468799 
L 246.518428 89.954313 
L 247.266062 89.344438 
L 252.312447 84.491033 
L 261.470819 77.594197 
L 263.900582 76.221434 
L 275.1149 70.832579 
L 290.254248 61.510894 
L 294.926913 59.211201 
L 301.655523 56.304941 
L 309.692444 53.293166 
L 315.860281 51.460277 
L 322.028117 51.44573 
L 326.887738 53.119088 
L 337.541282 62.811764 
L 340.718679 66.379215 
L 341.279453 66.583659 
L 341.653173 66.528594 
L 342.213947 66.189556 
L 347.447289 61.707467 
L 360.343735 50.811447 
L 361.278326 50.418552 
L 362.399681 50.251534 
L 374.174773 49.787671 
L 374.174773 49.787671 
" clip-path="url(#p47a85e8fb1)" style="fill: none; stroke: #00ff00; stroke-width: 1.5; stroke-linecap: square"/>
   </g>
   <g id="line2d_18">
    <path d="M 49.520227 229.10136 
L 50.454754 236.501455 
L 51.576185 245.595811 
L 51.949996 247.535755 
L 52.323807 249.615782 
L 53.258334 252.19036 
L 53.632144 253.087213 
L 54.753581 256.810416 
L 55.314297 257.827496 
L 55.688104 258.125969 
L 55.875013 258.435127 
L 56.061911 258.48874 
L 56.996444 257.894345 
L 57.183343 258.047587 
L 57.55716 258.495969 
L 58.117876 258.206508 
L 58.491684 258.34316 
L 58.678592 258.266605 
L 59.239308 258.407232 
L 59.800024 258.115994 
L 60.36074 257.717622 
L 60.734547 257.846777 
L 61.108355 257.894433 
L 61.295263 257.674633 
L 61.482172 257.638491 
L 61.66907 257.764799 
L 61.855979 257.633757 
L 62.229786 257.095623 
L 62.416695 257.164299 
L 62.603603 257.057122 
L 62.977411 256.607235 
L 63.164319 256.426136 
L 63.351218 256.493785 
L 63.538127 256.38839 
L 63.911934 255.616233 
L 64.285751 255.28769 
L 64.846467 254.504394 
L 65.033366 254.271855 
L 65.407183 254.185348 
L 65.78099 253.630263 
L 66.154798 253.897459 
L 66.528615 253.570809 
L 66.902422 253.319475 
L 67.089331 253.667852 
L 67.650046 253.348453 
L 67.836945 253.45937 
L 68.210762 252.802044 
L 68.397661 252.73693 
L 69.706002 254.037664 
L 70.079809 253.797349 
L 70.266717 253.737608 
L 70.453626 253.499455 
L 70.640525 253.565868 
L 71.014342 254.244141 
L 71.201241 254.301137 
L 71.761957 254.166457 
L 72.69649 255.416298 
L 73.070297 256.349724 
L 73.257205 256.540821 
L 73.444104 256.430884 
L 73.631013 256.511296 
L 73.817921 256.78095 
L 74.191729 256.767381 
L 74.565536 257.636488 
L 74.752445 257.653693 
L 75.126252 257.415508 
L 75.500069 257.90723 
L 75.686968 257.916148 
L 76.060785 257.409226 
L 76.247684 257.392292 
L 77.182217 258.398033 
L 77.369116 258.45429 
L 77.556024 258.162535 
L 77.742933 258.112276 
L 77.929831 258.183447 
L 78.11674 258.045581 
L 78.303649 257.571997 
L 78.864364 257.580981 
L 79.051263 257.728714 
L 79.238172 257.671467 
L 79.611979 257.065816 
L 79.798888 257.054191 
L 79.985796 257.270172 
L 80.546512 258.36312 
L 80.733411 258.325176 
L 81.481035 257.538545 
L 81.854843 256.570271 
L 82.22866 256.343731 
L 82.415559 256.077785 
L 82.789376 256.240629 
L 83.163183 256.3651 
L 83.53699 256.843937 
L 84.471523 257.494093 
L 84.845331 258.04248 
L 85.032239 257.959924 
L 85.592955 257.08138 
L 85.966763 256.75322 
L 86.527478 257.049586 
L 87.088194 257.283364 
L 87.64891 256.911425 
L 88.209626 257.22014 
L 88.583434 257.358953 
L 88.770342 257.190977 
L 89.331058 256.143116 
L 90.078682 255.386258 
L 90.45249 255.079393 
L 90.639398 255.01908 
L 91.200114 254.104486 
L 91.76083 253.822799 
L 92.321546 254.699293 
L 92.882262 255.572342 
L 93.256069 255.96163 
L 94.56441 257.428086 
L 95.312034 257.220182 
L 95.87275 257.600109 
L 96.246557 258.094102 
L 96.433466 258.078104 
L 96.620365 257.927976 
L 96.807273 257.535099 
L 96.994182 257.610949 
L 97.367989 257.310261 
L 97.928705 257.343034 
L 98.302512 256.842933 
L 98.489421 256.762765 
L 98.863228 256.892134 
L 99.237045 256.791582 
L 99.423944 256.892394 
L 99.98466 257.632136 
L 100.732284 257.594614 
L 101.106092 257.157241 
L 101.853716 256.762049 
L 102.414432 257.063212 
L 102.975148 257.208015 
L 103.348955 257.681505 
L 103.535864 257.655794 
L 103.909671 257.435709 
L 104.283488 257.522329 
L 105.218012 256.704274 
L 105.591819 256.995132 
L 106.339443 256.416838 
L 106.526352 256.235712 
L 107.087068 256.22539 
L 108.021591 256.706985 
L 108.2085 256.389765 
L 108.395408 256.370927 
L 108.582307 256.53278 
L 109.143023 257.628426 
L 109.329931 257.632274 
L 110.077556 257.129604 
L 110.264455 257.266521 
L 110.451363 257.594654 
L 110.825171 257.559126 
L 111.012079 257.330088 
L 111.385886 256.470072 
L 111.572795 256.236436 
L 111.946602 255.225712 
L 112.320419 255.423295 
L 113.068034 255.036841 
L 113.62875 255.530413 
L 114.189466 256.501933 
L 114.563283 256.755264 
L 114.750182 256.606554 
L 115.310898 256.869543 
L 116.058522 256.251378 
L 116.43233 255.859517 
L 117.179954 255.202185 
L 117.74067 255.482855 
L 118.488294 257.296019 
L 119.04901 257.697624 
L 119.796625 256.989373 
L 120.357341 256.995327 
L 120.544249 256.903261 
L 121.104965 256.972529 
L 121.478773 256.808595 
L 121.85259 257.590747 
L 122.039489 257.691369 
L 122.600204 257.53865 
L 122.974021 257.517418 
L 123.347829 257.389475 
L 123.908545 257.694104 
L 124.095453 257.742372 
L 124.843068 256.537193 
L 125.029977 256.568782 
L 125.216885 256.745372 
L 125.403784 257.251112 
L 126.151408 256.883554 
L 126.338317 256.920103 
L 126.712124 257.402196 
L 127.27284 257.580937 
L 128.207363 256.869841 
L 128.394272 257.057097 
L 128.768079 257.712 
L 128.954988 257.780222 
L 129.141896 257.611034 
L 129.515704 256.904189 
L 130.07642 256.8563 
L 130.263328 256.843637 
L 130.450227 256.609253 
L 130.824044 255.734206 
L 131.197851 255.428843 
L 131.758567 255.05349 
L 132.132375 255.418977 
L 132.506192 256.139515 
L 132.879999 255.900617 
L 133.066908 256.034136 
L 133.440715 256.804709 
L 133.814522 257.611749 
L 134.001431 257.769725 
L 134.188339 257.776545 
L 134.375238 257.664987 
L 134.562147 257.708041 
L 134.749055 257.942348 
L 135.122863 257.930155 
L 135.49667 257.551986 
L 135.683579 257.490055 
L 136.057386 257.151049 
L 136.618102 256.027924 
L 136.991919 256.446184 
L 137.365726 256.768787 
L 137.739534 256.509867 
L 138.113351 256.052763 
L 138.30025 256.080871 
L 138.860965 256.455828 
L 139.047874 256.336301 
L 139.982397 257.222891 
L 140.356214 257.853551 
L 140.730022 258.092338 
L 141.290738 257.644733 
L 141.477646 257.664145 
L 141.851492 257.149364 
L 142.038352 257.322196 
L 142.225309 257.292173 
L 142.412169 257.45252 
L 142.599029 257.410103 
L 142.785986 257.250163 
L 143.159804 257.485954 
L 143.346664 257.474322 
L 143.720481 257.807178 
L 144.281255 257.649033 
L 144.468115 257.499287 
L 144.841932 256.787885 
L 145.028889 256.948488 
L 145.589566 256.135023 
L 145.776426 256.300988 
L 146.3372 255.448495 
L 146.52406 255.427214 
L 146.711017 255.533417 
L 147.084834 255.151969 
L 147.458651 255.788788 
L 148.019328 256.779068 
L 148.393145 257.047547 
L 148.766962 257.50544 
L 148.953823 257.347743 
L 149.14078 257.577609 
L 149.32764 258.000698 
L 149.701457 257.935359 
L 150.075274 257.863272 
L 150.449091 257.437322 
L 150.822908 257.610525 
L 151.196725 257.25007 
L 152.318176 257.746847 
L 152.505036 257.610083 
L 152.691993 257.718888 
L 152.878853 257.960662 
L 153.06581 258.014522 
L 153.25267 257.883137 
L 153.439627 257.893454 
L 154.187164 257.527586 
L 154.374121 257.480056 
L 154.934799 256.303742 
L 155.308616 256.777858 
L 155.495573 256.643001 
L 156.243207 257.341963 
L 156.990744 257.936645 
L 157.177701 257.879879 
L 157.364561 257.64825 
L 157.551518 257.618146 
L 157.738378 257.718107 
L 158.299152 257.221493 
L 158.672969 256.662685 
L 159.233646 257.056381 
L 159.420506 257.309757 
L 159.607463 257.230379 
L 159.98128 256.979744 
L 160.355097 257.252297 
L 160.728915 257.664158 
L 160.915775 257.379721 
L 161.102732 257.306139 
L 161.476549 257.563518 
L 161.663409 257.588926 
L 162.037226 257.912258 
L 162.411043 257.859465 
L 162.78486 258.39167 
L 162.97172 258.30541 
L 163.719354 257.52412 
L 163.906311 257.334124 
L 164.280128 256.704865 
L 165.214622 255.724049 
L 166.149117 256.055744 
L 166.709891 256.820081 
L 166.896751 256.983819 
L 167.831245 256.905702 
L 168.205062 257.470938 
L 168.392019 257.054361 
L 168.765836 255.705899 
L 169.326513 254.893838 
L 169.70033 253.913569 
L 169.887287 253.793859 
L 170.447964 254.318651 
L 170.821781 254.093667 
L 171.008641 254.719766 
L 171.382458 258.271406 
L 171.569415 258.501258 
L 171.756276 255.517449 
L 172.690867 231.612857 
L 173.064684 227.466697 
L 173.251544 226.256671 
L 173.438404 226.114723 
L 173.625361 227.137377 
L 173.999178 231.539009 
L 174.372995 238.318884 
L 175.120629 256.862381 
L 175.307489 257.253794 
L 175.681306 254.171074 
L 175.868263 253.711325 
L 176.241983 253.553748 
L 176.42894 253.933157 
L 176.6158 254.579757 
L 176.802757 254.732523 
L 176.989617 254.497405 
L 177.176574 254.646053 
L 177.550391 255.569746 
L 177.737252 255.608878 
L 177.924209 255.19036 
L 178.111069 255.19774 
L 178.484886 255.058592 
L 179.04566 255.715257 
L 179.23252 255.511752 
L 179.606337 254.214362 
L 179.980154 252.773381 
L 180.167014 252.824117 
L 180.727788 251.842811 
L 181.101605 251.18695 
L 181.288465 250.769452 
L 181.662282 249.349746 
L 181.849239 249.231498 
L 183.344411 244.679264 
L 183.531368 244.612782 
L 184.279002 246.416726 
L 184.839679 248.590024 
L 185.213496 250.287554 
L 185.587313 251.429417 
L 185.774173 251.497992 
L 185.96113 251.302242 
L 186.14799 251.328444 
L 186.521807 251.919824 
L 187.269441 251.626747 
L 187.456398 251.741269 
L 187.830118 251.705987 
L 188.577752 253.067067 
L 188.95157 253.480762 
L 189.138526 253.215755 
L 189.512344 252.409993 
L 189.699204 252.166929 
L 190.633698 249.688061 
L 191.007515 249.619616 
L 191.568289 249.719823 
L 191.755149 249.664292 
L 192.128966 249.906928 
L 192.502783 250.572929 
L 192.68974 250.561115 
L 192.8766 250.085108 
L 193.063557 250.11213 
L 193.250417 250.411798 
L 193.437277 249.934308 
L 193.811094 248.380749 
L 193.998051 247.975192 
L 194.558728 247.632348 
L 195.119503 247.065388 
L 195.306363 246.931402 
L 195.867137 248.594737 
L 196.240857 249.531457 
L 196.988491 250.006783 
L 197.362308 248.954297 
L 197.736125 247.982883 
L 197.923082 247.780315 
L 198.483759 246.568803 
L 198.857576 247.232566 
L 199.231393 248.838177 
L 199.60521 249.980476 
L 200.726662 255.771912 
L 201.287339 257.137403 
L 201.661156 257.374124 
L 202.034973 256.971506 
L 202.221833 257.061196 
L 202.40879 257.279481 
L 202.59565 257.094085 
L 202.782607 256.708456 
L 202.969467 256.021311 
L 203.530241 255.436834 
L 203.717101 255.364917 
L 203.904058 254.92677 
L 204.090918 255.009 
L 204.277875 255.231972 
L 204.651595 255.027906 
L 205.399229 256.544508 
L 206.33382 258.762093 
L 206.520681 258.811676 
L 206.894498 258.694952 
L 207.081455 258.618506 
L 207.642132 257.780912 
L 207.828992 257.744009 
L 208.202809 257.156282 
L 208.389766 257.036343 
L 209.32426 257.293362 
L 209.511217 257.135206 
L 209.698077 257.229117 
L 210.071894 257.752584 
L 210.258754 257.90511 
L 210.819528 257.458182 
L 211.193345 256.994025 
L 211.567162 256.965452 
L 211.940979 256.352207 
L 212.12784 255.886273 
L 212.314797 255.90403 
L 212.501657 256.040034 
L 212.688614 256.320469 
L 213.436151 258.127593 
L 213.809968 258.530451 
L 213.996925 258.605937 
L 214.370742 258.41227 
L 214.557602 258.38103 
L 214.931419 257.912002 
L 215.118376 257.856747 
L 215.305236 257.432435 
L 215.492193 256.597803 
L 215.865913 256.286689 
L 216.05287 256.559452 
L 216.23973 256.458512 
L 216.426687 256.650553 
L 216.613547 256.63609 
L 216.987364 256.086187 
L 217.361181 255.808344 
L 217.734999 255.783389 
L 218.108816 256.097278 
L 218.295773 256.071882 
L 218.482633 256.373749 
L 218.669493 256.903586 
L 218.85645 256.966564 
L 219.04331 257.186842 
L 219.417127 258.056897 
L 219.790944 257.901371 
L 219.977901 257.542994 
L 220.538578 257.308875 
L 221.099352 256.518648 
L 221.473072 255.297339 
L 221.846889 254.678737 
L 222.033846 254.658886 
L 222.220706 254.874317 
L 222.594523 254.975642 
L 222.96834 255.455612 
L 223.342157 255.701525 
L 223.529114 255.616327 
L 224.463609 257.660704 
L 224.650469 257.80964 
L 225.77192 256.629932 
L 226.519554 255.63334 
L 226.893371 255.791177 
L 227.827865 254.976817 
L 228.014822 255.193598 
L 228.201682 255.193718 
L 228.575499 254.447691 
L 228.762456 254.443732 
L 228.949316 254.075262 
L 229.136273 253.993796 
L 229.323134 254.167623 
L 229.510091 253.958808 
L 229.696951 254.005675 
L 229.883811 254.200897 
L 230.070768 253.934001 
L 230.818402 254.144316 
L 231.379079 254.453047 
L 231.566036 254.48628 
L 231.939853 254.852604 
L 232.68739 254.005302 
L 232.874347 254.097582 
L 233.061207 254.057667 
L 233.435024 253.100673 
L 233.621981 252.793189 
L 233.808841 252.200678 
L 233.995798 252.171161 
L 234.556475 253.001045 
L 234.743432 253.055729 
L 235.117249 252.469731 
L 235.30411 252.11737 
L 235.49097 252.408893 
L 235.677927 252.438941 
L 236.051744 251.820072 
L 236.612421 251.706971 
L 237.173195 251.13146 
L 237.733872 251.2266 
L 237.920829 250.949596 
L 238.294549 250.062778 
L 238.855323 249.192506 
L 239.042183 248.886488 
L 239.416 249.053819 
L 239.789817 249.415962 
L 240.350591 250.107001 
L 241.471946 253.507448 
L 241.658903 253.649423 
L 241.845763 254.288208 
L 242.21958 256.266284 
L 243.341031 258.68629 
L 243.527891 258.291745 
L 243.901708 258.232682 
L 244.088665 258.24358 
L 244.649342 257.468174 
L 245.023159 257.503585 
L 245.210116 257.05755 
L 245.396976 256.93545 
L 245.770793 258.29218 
L 246.331471 258.629216 
L 246.892245 259.418619 
L 247.266062 258.242535 
L 248.387513 256.834544 
L 248.574373 256.881073 
L 248.761233 256.364121 
L 248.94819 256.210716 
L 249.13505 256.771508 
L 249.322007 256.949767 
L 249.695824 256.27673 
L 249.882684 256.401262 
L 250.443458 257.175323 
L 250.817275 256.438601 
L 251.004135 256.723044 
L 251.564812 256.914998 
L 251.93863 256.258242 
L 252.125586 255.469259 
L 252.873221 254.266479 
L 253.247038 252.724273 
L 253.433898 252.790231 
L 253.807715 252.514877 
L 254.742209 250.65504 
L 254.929166 250.737024 
L 255.302983 250.504136 
L 255.6768 249.438994 
L 255.86366 249.183747 
L 256.050617 249.171248 
L 256.611294 248.655036 
L 256.798251 248.929938 
L 258.854197 254.20543 
L 259.414874 255.331193 
L 259.601831 255.733551 
L 259.788691 255.744289 
L 260.162508 256.057619 
L 260.536325 256.583816 
L 260.723185 256.911346 
L 260.910142 256.878789 
L 261.097002 256.431935 
L 261.844636 256.362077 
L 262.218453 256.402906 
L 262.59227 256.926504 
L 262.966087 256.947841 
L 263.152947 257.210502 
L 263.526765 256.990833 
L 263.713722 257.155978 
L 263.900582 257.144642 
L 264.087539 257.247003 
L 264.274399 256.940885 
L 264.648216 256.740723 
L 264.835173 256.08832 
L 265.022033 256.26767 
L 265.20899 256.16718 
L 265.39585 256.282261 
L 265.769667 256.677681 
L 265.956527 256.659186 
L 266.330344 257.149575 
L 266.517301 257.150745 
L 266.891118 257.345249 
L 267.077978 257.26512 
L 267.264935 257.609509 
L 267.451795 257.630467 
L 267.825612 257.419545 
L 268.012569 257.424959 
L 268.573246 256.624075 
L 268.760106 256.937541 
L 268.947063 256.820664 
L 269.133923 256.899918 
L 269.507741 256.827944 
L 269.694698 256.904416 
L 269.881558 257.152763 
L 270.442332 257.125012 
L 271.003009 257.581698 
L 271.189966 257.262355 
L 271.563686 257.146485 
L 271.937503 256.645843 
L 272.12446 257.108719 
L 272.872094 257.558533 
L 273.058954 257.482168 
L 273.245911 257.647336 
L 273.619728 257.447128 
L 273.993545 257.786553 
L 274.367265 258.219587 
L 274.928039 256.846816 
L 275.1149 256.998356 
L 275.301857 256.632795 
L 275.488717 256.66136 
L 275.675674 257.07022 
L 275.862534 257.102388 
L 276.236351 256.637729 
L 276.610168 256.161334 
L 276.983985 256.567746 
L 277.357802 257.270005 
L 277.544662 257.195817 
L 277.731619 257.332611 
L 277.918479 257.277603 
L 278.105436 256.770172 
L 278.666113 256.538428 
L 278.85307 256.804646 
L 279.03993 256.727855 
L 279.226887 257.129059 
L 279.413747 257.063266 
L 279.600704 256.78234 
L 279.787564 256.984447 
L 279.974424 256.842877 
L 280.161381 256.93065 
L 280.535198 257.754874 
L 280.722059 257.378012 
L 280.909015 257.653622 
L 281.282833 257.118585 
L 281.469693 257.555137 
L 281.65665 257.346798 
L 281.84351 257.402566 
L 282.030467 257.605161 
L 282.591144 257.067962 
L 282.964961 257.129148 
L 283.151821 256.997847 
L 283.712595 257.004441 
L 284.086412 256.820367 
L 284.273272 256.720136 
L 284.460229 256.407432 
L 284.647089 256.565346 
L 284.834046 256.395673 
L 285.207863 257.06996 
L 285.394723 256.901175 
L 285.76854 257.253486 
L 285.9554 257.008802 
L 286.142357 257.248842 
L 286.329217 256.84041 
L 286.703035 257.261933 
L 287.824486 255.597927 
L 288.011443 255.754224 
L 288.198303 255.535842 
L 288.385163 254.900252 
L 288.57212 255.103397 
L 288.945937 255.71637 
L 289.132797 255.747474 
L 289.506614 256.210149 
L 289.880431 256.8219 
L 290.067388 256.583302 
L 290.254248 256.919554 
L 290.628065 256.166612 
L 291.001882 256.498844 
L 291.188742 256.499474 
L 291.375699 256.362681 
L 291.562559 256.492028 
L 291.749516 256.477641 
L 292.123333 256.194358 
L 292.497151 256.550903 
L 293.244785 256.782423 
L 293.618602 256.125014 
L 294.179279 254.76135 
L 294.739956 254.960031 
L 294.926913 254.882925 
L 295.113773 254.642763 
L 295.30073 254.651605 
L 295.48759 254.500235 
L 296.048364 255.187894 
L 296.422181 255.822634 
L 296.795901 256.040619 
L 297.356675 255.412418 
L 297.543535 254.968086 
L 297.917352 255.464802 
L 298.104309 255.219674 
L 298.664987 256.177239 
L 299.038804 256.109204 
L 299.786438 257.179 
L 300.347115 257.285395 
L 300.907889 256.316308 
L 301.094749 256.389396 
L 301.281706 256.638446 
L 301.468566 257.458769 
L 301.655523 257.504215 
L 301.842383 257.253137 
L 302.02934 257.763667 
L 302.40306 257.562752 
L 303.150694 255.745191 
L 303.524511 256.210845 
L 303.711468 256.179854 
L 304.459103 255.479011 
L 304.645963 255.680095 
L 305.20664 257.390541 
L 306.141231 256.343414 
L 306.515048 255.416786 
L 306.701908 255.381905 
L 307.262682 256.639291 
L 307.449542 257.17258 
L 307.636499 257.067184 
L 307.823359 257.265808 
L 308.010219 256.929492 
L 308.197176 256.871577 
L 308.570993 257.57786 
L 308.757853 257.575808 
L 308.94481 257.746823 
L 309.318627 257.129141 
L 310.440079 256.250404 
L 310.626939 256.349058 
L 311.187616 255.914328 
L 311.561433 255.020481 
L 311.74839 254.597431 
L 311.93525 254.727122 
L 312.122207 254.599952 
L 312.309067 254.162297 
L 312.496024 254.092909 
L 312.682884 254.564901 
L 312.869841 254.599202 
L 313.056701 254.197693 
L 313.243658 254.114033 
L 313.430518 254.270747 
L 314.365012 255.879607 
L 314.551969 255.331553 
L 315.112646 256.36517 
L 315.299603 256.302027 
L 315.486464 256.513452 
L 315.673421 256.406835 
L 316.047238 255.690326 
L 316.420958 255.741799 
L 317.168592 253.882771 
L 317.355549 253.791625 
L 317.542409 253.42389 
L 317.729366 253.70984 
L 317.916226 253.779638 
L 318.290043 253.435852 
L 318.477 253.701665 
L 318.66386 253.592509 
L 318.850817 253.776276 
L 319.037677 253.443894 
L 319.224537 253.77236 
L 319.598354 253.713258 
L 319.972171 254.121479 
L 320.159128 254.362653 
L 320.532945 254.045417 
L 320.906762 254.173967 
L 321.28058 253.50028 
L 321.654397 254.207089 
L 321.841257 254.095061 
L 322.775751 252.13556 
L 323.336525 252.613443 
L 324.084159 252.012413 
L 324.271019 252.167691 
L 324.457976 252.158861 
L 324.831696 251.348524 
L 325.018653 251.443131 
L 325.205513 251.743432 
L 325.39247 251.830773 
L 325.57933 251.522253 
L 325.766287 251.523458 
L 325.953147 251.898296 
L 326.513921 251.5795 
L 326.700781 252.085497 
L 326.887738 252.204102 
L 327.074599 251.737712 
L 327.635276 249.713831 
L 327.822233 249.138584 
L 328.19605 248.707957 
L 328.38291 248.360008 
L 328.569867 248.435009 
L 328.943684 247.610523 
L 329.317501 246.64415 
L 329.504361 246.708096 
L 329.691318 246.895476 
L 330.065135 245.90853 
L 330.438855 245.598831 
L 331.186489 242.821949 
L 332.30794 239.851618 
L 332.681758 238.567861 
L 332.868715 238.24158 
L 333.055575 238.152852 
L 333.242435 238.601175 
L 333.616252 238.243549 
L 334.363886 240.495846 
L 336.980605 255.430028 
L 337.167465 255.795619 
L 337.728239 257.390408 
L 337.915099 257.223867 
L 338.102056 257.368265 
L 338.475873 257.334648 
L 338.662734 257.033568 
L 338.849594 257.16036 
L 339.036551 257.578674 
L 339.223411 257.538689 
L 339.971045 258.755494 
L 340.158002 258.767216 
L 340.905636 260.940246 
L 341.092496 261.210038 
L 341.466313 261.216 
L 341.84013 260.601169 
L 342.02699 259.957302 
L 342.400807 258.170205 
L 342.587764 258.069486 
L 342.774624 257.526858 
L 343.709215 252.182264 
L 343.896075 251.640932 
L 344.083032 251.500915 
L 344.269893 250.770682 
L 344.64371 248.783173 
L 345.017527 247.825667 
L 345.204387 248.000195 
L 345.578204 247.080577 
L 345.765161 246.803413 
L 345.952021 246.783834 
L 346.138978 247.09767 
L 346.512795 246.760295 
L 346.699655 246.921831 
L 346.886612 246.889485 
L 347.260332 245.968365 
L 347.634149 245.763026 
L 348.194923 242.958988 
L 348.381783 243.126217 
L 348.56874 243.470138 
L 348.942557 243.553066 
L 349.129417 242.972526 
L 349.503234 243.518751 
L 349.877052 242.325421 
L 350.063912 241.928852 
L 350.437729 242.370086 
L 350.811546 242.259278 
L 351.55918 244.069352 
L 351.746137 243.895123 
L 351.932997 244.302199 
L 352.119954 245.230643 
L 352.306814 245.420612 
L 352.493771 245.367462 
L 352.867588 245.754558 
L 353.054448 245.812257 
L 353.241308 245.687072 
L 353.428265 244.946181 
L 354.362759 246.29615 
L 354.549716 246.487197 
L 355.110393 247.92086 
L 355.48421 247.456592 
L 356.044888 249.395346 
L 356.418705 250.336801 
L 356.792522 251.176723 
L 356.979479 251.804802 
L 357.166339 251.677751 
L 357.540156 251.869007 
L 358.10093 251.000272 
L 358.474747 251.941353 
L 359.035424 253.335133 
L 359.222284 253.664251 
L 359.596101 254.987507 
L 359.969918 255.901894 
L 360.156875 255.8474 
L 360.530692 256.605193 
L 360.717552 256.607582 
L 360.904509 256.111672 
L 361.091369 256.090972 
L 361.278326 256.398348 
L 361.652047 255.944339 
L 361.839004 255.838879 
L 362.025864 256.256478 
L 362.212821 256.360685 
L 362.399681 256.138753 
L 362.960455 254.800029 
L 363.147315 254.79898 
L 363.334272 254.596472 
L 363.708089 253.633543 
L 364.081906 253.422199 
L 364.455626 254.316855 
L 364.829443 254.460443 
L 365.20326 255.002335 
L 365.390217 255.15377 
L 365.577077 255.070289 
L 365.764034 255.223665 
L 366.324711 255.027771 
L 366.698528 254.451406 
L 367.072346 254.221615 
L 367.259206 254.392186 
L 367.81998 255.728496 
L 368.193797 257.101432 
L 368.380657 257.632541 
L 368.754474 257.662366 
L 369.128291 257.252597 
L 369.315248 257.209414 
L 369.502108 257.29513 
L 370.062785 255.732241 
L 370.436602 254.721176 
L 370.623559 254.634802 
L 371.184236 255.250349 
L 371.371193 255.450102 
L 371.558053 255.199176 
L 371.93187 255.567904 
L 372.118827 255.440464 
L 372.305687 255.043988 
L 372.679504 255.187356 
L 373.240182 255.7074 
L 373.800956 256.588852 
L 374.174773 257.369979 
L 374.174773 257.369979 
" clip-path="url(#p47a85e8fb1)" style="fill: none; stroke: #ff0000; stroke-width: 1.5; stroke-linecap: square"/>
   </g>
   <g id="patch_3">
    <path d="M 33.2875 273.312 
L 33.2875 7.2 
" style="fill: none; stroke: #000000; stroke-width: 0.8; stroke-linejoin: miter; stroke-linecap: square"/>
   </g>
   <g id="patch_4">
    <path d="M 390.4075 273.312 
L 390.4075 7.2 
" style="fill: none; stroke: #000000; stroke-width: 0.8; stroke-linejoin: miter; stroke-linecap: square"/>
   </g>
   <g id="patch_5">
    <path d="M 33.2875 273.312 
L 390.4075 273.312 
" style="fill: none; stroke: #000000; stroke-width: 0.8; stroke-linejoin: miter; stroke-linecap: square"/>
   </g>
   <g id="patch_6">
    <path d="M 33.2875 7.2 
L 390.4075 7.2 
" style="fill: none; stroke: #000000; stroke-width: 0.8; stroke-linejoin: miter; stroke-linecap: square"/>
   </g>
  </g>
 </g>
 <defs>
  <clipPath id="p47a85e8fb1">
   <rect x="33.2875" y="7.2" width="357.12" height="266.112"/>
  </clipPath>
 </defs>
</svg>
